<?xml version="1.0" standalone="no"?>
<!DOCTYPE svg PUBLIC "-//W3C//DTD SVG 20010904//EN"
 "http://www.w3.org/TR/2001/REC-SVG-20010904/DTD/svg10.dtd">
<svg version="1.0" xmlns="http://www.w3.org/2000/svg"
 width="512.000000pt" height="512.000000pt" viewBox="0 0 512.000000 512.000000"
 preserveAspectRatio="xMidYMid meet">
<metadata>
Created by potrace 1.14, written by Peter Selinger 2001-2017
</metadata>
<g transform="translate(0.000000,512.000000) scale(0.100000,-0.100000)"
fill="#000000" stroke="none">
<path d="M200 2560 l0 -2360 2360 0 2360 0 0 2360 0 2360 -2360 0 -2360 0 0
-2360z m1471 782 c8 3 33 -6 56 -19 37 -21 45 -23 85 -13 79 20 169 -20 197
-89 11 -26 16 -28 49 -24 31 4 41 0 65 -24 15 -17 29 -43 30 -59 2 -26 5 -29
29 -26 19 3 30 -1 34 -12 3 -9 14 -16 23 -16 27 0 99 -81 116 -130 9 -25 27
-54 41 -65 19 -15 27 -33 31 -68 3 -26 12 -52 19 -58 18 -15 18 -64 -1 -125
-20 -67 -19 -117 5 -164 11 -22 20 -50 20 -64 0 -34 -149 -329 -204 -403 -74
-101 -183 -168 -324 -199 -64 -14 -88 -15 -180 -4 -70 8 -116 8 -132 2 -14 -5
-34 -7 -45 -5 -81 18 -465 18 -534 -1 -34 -9 -63 -11 -77 -6 -12 5 -64 8 -116
8 -119 -2 -161 16 -216 90 -35 47 -40 61 -46 129 -5 49 -3 80 3 86 8 8 11 -1
11 -28 0 -30 3 -36 10 -25 8 12 10 12 10 -5 1 -11 7 -33 15 -50 l14 -30 -4 40
c-5 40 -5 40 8 12 12 -25 13 -20 11 60 l-2 88 7 -73 c4 -40 13 -78 20 -85 10
-10 11 -1 5 43 -4 30 -3 51 2 47 8 -8 68 112 60 120 -9 9 -45 -18 -52 -39 -6
-20 -7 -21 -20 -4 -17 24 -31 13 -44 -35 -6 -22 -15 -37 -20 -34 -5 3 -6 13
-1 23 4 9 14 31 22 47 11 21 22 30 40 30 14 1 40 11 57 24 l32 23 33 -27 c17
-15 36 -34 40 -41 14 -25 20 -147 9 -204 -6 -30 -9 -57 -6 -59 2 -2 20 13 40
33 l37 37 -9 112 c-4 62 -8 160 -9 219 0 97 2 109 24 139 13 18 24 38 24 45 0
9 8 8 32 -2 103 -43 268 -38 352 11 96 57 72 183 -42 215 -27 8 -90 11 -167 9
-106 -4 -128 -7 -159 -26 -55 -34 -76 -103 -47 -156 10 -20 10 -21 -5 -8 -23
19 -22 87 3 133 16 31 17 38 5 48 -46 38 -69 197 -41 277 34 95 28 180 -14
218 -19 18 -20 17 -21 -16 -1 -19 -1 -48 0 -66 2 -23 -5 -40 -23 -58 -15 -15
-26 -37 -26 -54 0 -34 -21 -64 -42 -60 -24 6 -116 117 -129 156 -16 51 -3 120
30 153 15 15 52 35 83 44 68 20 77 20 53 2 -10 -7 -21 -32 -25 -57 l-7 -44 -2
45 c-2 41 -3 43 -12 20 -6 -14 -8 -45 -4 -70 4 -32 3 -41 -4 -30 -6 8 -11 30
-11 48 0 45 -16 32 -24 -19 -9 -55 3 -161 18 -156 6 2 10 18 10 36 -2 27 1 31
23 31 23 0 24 2 18 39 -5 30 -3 40 9 44 10 4 16 18 16 36 0 22 9 37 35 58 l35
28 -27 6 c-21 5 -15 7 24 8 54 1 88 -9 137 -43 23 -15 32 -17 47 -8 25 16 39
15 60 -4 16 -14 20 -14 46 5 16 12 47 24 68 26 34 4 36 4 10 -4 -68 -18 -120
-60 -99 -80 4 -3 9 1 12 9 3 10 9 3 17 -19 12 -37 35 -54 35 -27 0 9 -4 16 -9
16 -11 0 -25 39 -17 47 3 3 10 -6 15 -19 l10 -25 53 18 c29 10 67 18 84 19 29
0 110 -29 127 -47 4 -4 18 -9 31 -10 29 -4 40 18 21 44 -14 17 -14 17 -15 -2
-1 -17 -3 -17 -11 5 -7 18 -7 26 2 29 18 6 -46 30 -101 37 -36 5 -50 3 -50 -5
0 -7 4 -9 10 -6 5 3 7 0 4 -9 -5 -12 -9 -13 -19 -3 -7 6 -10 18 -8 24 4 9 -4
12 -26 9 -17 -2 -31 1 -31 5 0 12 18 11 131 -7 111 -17 159 -10 206 30 17 15
30 20 34 14 4 -6 13 -8 20 -6z m1128 -17 c52 -36 71 -43 71 -25 0 19 83 50
135 50 66 0 118 -15 154 -45 36 -31 37 -31 65 1 15 19 37 29 70 34 75 11 126
-3 162 -44 l31 -36 19 21 c57 64 196 68 261 7 21 -20 24 -20 41 -5 9 9 44 28
76 43 70 32 106 29 199 -15 l65 -31 29 29 c33 32 87 51 150 51 74 0 172 -99
173 -173 0 -39 -28 -84 -61 -98 -40 -16 -97 -14 -118 5 -16 14 -17 7 -16 -134
0 -136 -2 -151 -21 -177 l-21 -28 25 -33 c14 -18 27 -51 30 -77 4 -42 2 -47
-32 -78 -33 -30 -35 -35 -21 -47 37 -31 47 -69 40 -154 l-7 -81 32 -23 c26
-20 30 -28 25 -52 -5 -21 -1 -31 14 -42 11 -8 27 -31 36 -51 8 -20 31 -47 51
-61 54 -36 74 -72 74 -132 0 -136 -127 -192 -333 -146 -150 34 -151 34 -198
17 -70 -26 -86 -28 -116 -13 -24 12 -36 12 -78 1 -28 -7 -68 -13 -91 -13 -49
0 -138 25 -180 51 l-32 19 -68 -32 c-85 -40 -157 -47 -221 -23 -57 22 -114 23
-144 1 -29 -20 -78 -21 -106 -1 -19 13 -26 13 -65 -1 -70 -25 -175 -29 -243
-9 -101 29 -185 140 -159 212 18 51 78 78 133 59 21 -7 23 -6 18 13 -3 12 3
31 15 46 12 16 17 32 13 45 -4 12 0 31 9 45 10 15 14 35 10 53 -4 21 -1 33 11
43 10 8 31 27 48 43 l31 29 -21 16 c-12 9 -34 24 -48 34 -19 14 -25 27 -25 56
0 32 6 45 35 70 20 17 40 31 45 31 5 0 2 12 -6 28 -7 15 -14 50 -14 78 0 41 6
59 30 92 l30 41 -24 25 c-28 27 -50 97 -43 135 2 14 15 61 27 103 25 81 23
102 -7 76 -67 -59 -183 0 -183 93 0 51 13 75 53 99 51 31 106 26 166 -15z
m-1492 -57 c-3 -8 -6 -5 -6 6 -1 11 2 17 5 13 3 -3 4 -12 1 -19z m-60 -20 c-3
-7 -5 -2 -5 12 0 14 2 19 5 13 2 -7 2 -19 0 -25z m-30 -15 c-3 -10 -5 -4 -5
12 0 17 2 24 5 18 2 -7 2 -21 0 -30z m260 -5 c-3 -8 -6 -5 -6 6 -1 11 2 17 5
13 3 -3 4 -12 1 -19z m-750 -70 c-3 -8 -6 -5 -6 6 -1 11 2 17 5 13 3 -3 4 -12
1 -19z m513 -459 c86 -19 119 -40 132 -81 14 -47 -4 -79 -65 -109 -51 -27
-208 -38 -274 -20 -88 24 -122 115 -63 165 55 45 178 66 270 45z"/>
<path d="M1670 3292 c0 -45 -10 -57 -58 -67 l-34 -7 32 -27 c32 -26 39 -51 29
-106 -6 -30 29 -32 37 -1 6 23 2 33 -39 105 -17 31 -17 31 6 31 12 0 33 7 45
16 18 12 22 24 20 52 -2 26 -8 38 -20 40 -15 3 -18 -4 -18 -36z"/>
<path d="M900 3305 c-11 -13 -10 -14 4 -9 9 3 16 10 16 15 0 13 -6 11 -20 -6z"/>
<path d="M1631 3294 c-9 -20 -15 -24 -20 -15 -6 10 -10 9 -15 -4 -3 -10 -13
-14 -23 -11 -10 3 -25 1 -33 -4 -11 -7 -9 -11 13 -19 40 -15 42 -15 73 22 22
26 26 28 20 10 -5 -14 -3 -23 3 -23 12 0 13 26 2 53 -6 17 -8 16 -20 -9z m-21
-34 c0 -5 -5 -10 -11 -10 -5 0 -7 5 -4 10 3 6 8 10 11 10 2 0 4 -4 4 -10z"/>
<path d="M979 3279 c18 -11 30 -23 27 -26 -3 -4 4 -17 16 -30 16 -17 19 -26
11 -34 -9 -9 -8 -17 0 -32 9 -15 9 -21 0 -24 -8 -3 -11 -14 -7 -29 3 -13 2
-24 -4 -24 -5 0 -7 -11 -4 -25 2 -14 0 -25 -6 -25 -6 0 -8 -8 -5 -19 3 -10 0
-22 -6 -25 -12 -8 -15 -36 -3 -36 4 0 20 35 35 78 30 86 35 158 12 202 -17 33
-61 70 -84 70 -9 0 -2 -9 18 -21z"/>
<path d="M1732 3287 c-11 -13 -12 -57 -2 -57 3 0 11 13 17 30 12 32 2 48 -15
27z"/>
<path d="M1790 3287 c-35 -18 -49 -71 -25 -97 23 -26 67 -26 90 0 10 11 22 20
27 20 14 0 9 -47 -7 -60 -18 -15 -96 -15 -123 -1 -13 7 -23 7 -27 2 -8 -15 34
-34 62 -28 18 3 23 1 19 -9 -7 -18 40 -19 47 -1 4 9 8 9 15 -2 13 -18 32 -5
32 21 0 17 3 18 15 8 12 -10 15 -7 20 13 4 14 13 28 21 31 17 7 18 -5 2 -23
-11 -11 -10 -13 5 -8 9 4 17 2 17 -3 0 -6 -6 -10 -13 -10 -8 0 -21 -8 -31 -18
-15 -18 -15 -19 9 -30 23 -10 26 -9 41 20 25 47 14 125 -20 155 -36 31 -56 30
-57 -4 l-1 -28 -7 30 c-5 27 -11 30 -46 33 -22 1 -51 -4 -65 -11z m80 -26 c0
-5 -7 -14 -15 -21 -12 -10 -15 -10 -15 4 0 9 -4 16 -9 16 -16 0 -31 -27 -25
-44 3 -9 1 -16 -5 -16 -7 0 -10 15 -9 40 3 33 6 39 21 34 9 -3 17 0 17 6 0 8
6 8 20 0 11 -6 20 -14 20 -19z m72 -46 c-7 -25 -9 -26 -15 -11 -4 10 -2 25 4
33 16 19 20 12 11 -22z"/>
<path d="M684 3254 c-30 -31 -34 -42 -34 -88 0 -40 6 -60 25 -86 14 -19 25
-29 25 -23 0 7 -4 14 -9 17 -14 9 -23 87 -11 101 8 10 8 19 0 34 -9 18 -6 24
25 43 35 23 44 38 24 38 -7 0 -27 -16 -45 -36z"/>
<path d="M1064 3266 c-11 -29 0 -51 26 -51 21 0 25 5 25 30 0 24 -5 31 -23 33
-13 2 -24 -3 -28 -12z"/>
<path d="M881 3235 c0 -5 11 -23 24 -40 19 -23 25 -26 25 -12 0 9 -4 17 -10
17 -5 0 -10 7 -10 16 0 8 -4 13 -9 10 -5 -4 -12 0 -14 6 -3 7 -6 9 -6 3z"/>
<path d="M1341 3194 c0 -11 3 -14 6 -6 3 7 2 16 -1 19 -3 4 -6 -2 -5 -13z"/>
<path d="M1373 3175 c0 -22 2 -30 4 -17 2 12 2 30 0 40 -3 9 -5 -1 -4 -23z"/>
<path d="M1542 3193 c-8 -14 -9 -24 -2 -28 12 -7 24 18 18 37 -3 8 -9 5 -16
-9z"/>
<path d="M1164 3158 c2 -46 24 -68 67 -68 29 0 79 34 67 46 -4 4 -14 2 -21 -5
-23 -19 -50 -2 -44 28 5 25 5 25 -10 6 -14 -20 -15 -20 -38 7 l-23 27 2 -41z
m61 -56 c-7 -8 -43 9 -48 23 -5 10 1 10 23 -3 16 -9 27 -18 25 -20z"/>
<path d="M1310 3195 c0 -5 5 -17 10 -25 5 -8 10 -10 10 -5 0 6 -5 17 -10 25
-5 8 -10 11 -10 5z"/>
<path d="M1660 3193 c0 -5 7 -16 14 -26 11 -14 15 -15 19 -4 3 8 0 20 -6 26
-13 13 -27 15 -27 4z"/>
<path d="M1556 3160 l-17 -30 -18 21 c-14 17 -24 20 -44 15 -23 -5 -27 -12
-27 -40 0 -77 93 -94 131 -25 7 15 6 17 -5 13 -15 -6 -16 10 -1 57 9 28 2 23
-19 -11z m-42 -16 c11 -28 6 -54 -8 -54 -8 0 -18 4 -21 10 -3 6 1 7 9 4 9 -3
16 -1 16 5 0 6 -5 11 -11 11 -6 0 -8 7 -5 16 3 8 2 12 -4 9 -6 -3 -10 -1 -10
4 0 17 27 13 34 -5z"/>
<path d="M1081 3166 c-17 -20 -3 -46 24 -46 29 0 38 13 30 40 -7 23 -37 26
-54 6z"/>
<path d="M1254 3160 c0 -11 6 -20 14 -20 7 0 12 8 10 17 -4 24 -24 27 -24 3z"/>
<path d="M2033 3155 c-29 -26 -18 -34 18 -12 17 10 22 9 35 -7 14 -20 14 -20
14 0 0 20 -17 44 -31 44 -5 0 -21 -11 -36 -25z"/>
<path d="M925 3151 c-3 -5 -1 -12 5 -16 5 -3 10 1 10 9 0 18 -6 21 -15 7z"/>
<path d="M1690 3120 c0 -11 4 -20 9 -20 5 0 7 9 4 20 -3 11 -7 20 -9 20 -2 0
-4 -9 -4 -20z"/>
<path d="M1310 3102 c0 -15 7 -18 30 -17 17 1 30 -2 30 -6 0 -5 -10 -9 -22 -9
-13 0 -41 0 -63 -1 -31 0 -19 -5 55 -22 101 -24 119 -20 105 22 -13 42 -135
71 -135 33z m85 -42 c-3 -5 -12 -10 -18 -10 -7 0 -6 4 3 10 19 12 23 12 15 0z
m35 -10 c0 -5 -5 -10 -11 -10 -5 0 -7 5 -4 10 3 6 8 10 11 10 2 0 4 -4 4 -10z"/>
<path d="M1125 3073 c-49 -26 -63 -42 -57 -68 l4 -24 29 21 c18 14 29 31 30
47 1 24 1 25 7 4 6 -20 9 -20 32 -8 27 15 29 23 8 36 -17 11 -18 11 -53 -8z
m-11 -38 c-4 -8 -8 -15 -10 -15 -2 0 -4 7 -4 15 0 8 4 15 10 15 5 0 7 -7 4
-15z"/>
<path d="M1760 3075 c0 -8 2 -15 4 -15 2 0 12 -3 21 -7 15 -5 16 -3 6 15 -13
25 -31 29 -31 7z"/>
<path d="M1880 3069 c0 -18 4 -20 27 -14 36 9 41 14 23 25 -26 17 -50 11 -50
-11z"/>
<path d="M958 3073 c7 -3 16 -2 19 1 4 3 -2 6 -13 5 -11 0 -14 -3 -6 -6z"/>
<path d="M1814 3064 c3 -9 6 -18 6 -20 0 -2 11 -4 25 -4 27 0 32 9 13 28 -18
18 -51 15 -44 -4z"/>
<path d="M2130 3060 c-25 -10 -56 -19 -70 -20 l-25 0 25 -13 c17 -9 27 -23 30
-47 3 -22 11 -35 20 -36 29 -2 30 -4 15 -34 -8 -16 -14 -35 -13 -42 2 -7 -6
-13 -17 -14 -35 -2 -65 -15 -65 -27 0 -8 -3 -8 -9 1 -4 7 -21 14 -36 16 -18 2
-39 16 -56 35 -17 21 -28 28 -31 20 -3 -10 -6 -10 -12 -1 -4 7 -2 12 3 12 14
0 14 36 -1 63 -10 20 -10 21 5 9 9 -8 20 -11 25 -8 6 3 15 -1 22 -9 7 -8 15
-13 19 -10 4 2 7 -16 6 -41 -2 -39 1 -47 21 -56 35 -16 54 5 54 58 0 35 -6 50
-28 74 -38 39 -65 48 -120 40 -52 -8 -76 -31 -93 -91 -15 -48 0 -89 31 -89 18
0 19 -3 10 -20 -7 -14 -7 -20 0 -20 5 0 10 5 10 10 0 6 7 10 16 10 14 0 14 -3
4 -15 -10 -12 -10 -15 0 -15 10 0 10 -3 0 -14 -10 -13 -7 -15 17 -13 15 1 31
7 35 12 5 6 8 5 8 -4 0 -7 6 -11 15 -7 8 3 15 1 15 -4 0 -14 17 -12 32 3 7 8
20 12 30 9 10 -2 18 1 18 7 0 6 6 11 14 11 8 0 17 6 19 13 4 9 8 9 15 -2 14
-20 71 -21 65 -1 -4 13 -4 13 6 0 17 -24 13 -40 -11 -40 -20 -1 -20 -2 7 -15
28 -13 25 -13 -55 -14 -105 -1 -151 -13 -195 -53 -31 -27 -35 -36 -35 -79 0
-94 70 -139 218 -139 89 0 163 22 201 61 63 62 30 161 -64 194 l-40 14 43 2
c87 5 87 5 85 -16 -4 -46 39 -75 52 -35 15 46 -33 78 -101 67 -18 -3 -34 -2
-34 4 0 5 -6 9 -14 9 -7 0 -18 6 -24 13 -9 10 -6 17 8 30 25 21 25 33 0 108
-21 61 -20 79 5 79 7 0 15 7 19 15 3 8 13 15 21 15 9 0 13 5 9 11 -4 6 -20 8
-40 4 -45 -8 -64 4 -33 21 36 20 1 16 -51 -6z m10 -55 c0 -14 -2 -25 -4 -25
-2 0 -6 11 -8 25 -3 14 -1 25 3 25 5 0 9 -11 9 -25z m-306 -51 c3 -8 2 -12 -4
-9 -6 3 -10 10 -10 16 0 14 7 11 14 -7z m16 -50 c0 -2 -9 0 -20 6 -11 6 -20
13 -20 16 0 2 9 0 20 -6 11 -6 20 -13 20 -16z m330 4 c0 -6 -6 -5 -15 2 -8 7
-15 14 -15 16 0 2 7 1 15 -2 8 -4 15 -11 15 -16z m-327 -25 c26 -8 20 -21 -8
-16 -13 3 -30 12 -37 21 -11 14 -10 15 7 8 11 -5 28 -11 38 -13z m337 -60 c0
-19 -13 -9 -16 12 -1 8 2 13 7 9 5 -3 9 -12 9 -21z m16 -114 c55 -14 94 -57
94 -103 0 -43 -39 -79 -108 -102 -103 -33 -266 1 -294 61 -14 31 -3 88 22 110
46 42 187 59 286 34z m151 -14 c-4 -8 -11 -15 -17 -15 -6 0 -6 7 2 20 14 22
24 19 15 -5z"/>
<path d="M2087 2693 c-11 -10 -8 -53 3 -53 6 0 10 9 10 20 0 28 20 25 21 -2 1
-18 2 -19 6 -5 7 28 -23 58 -40 40z"/>
<path d="M2006 2681 c-8 -13 3 -38 20 -45 8 -3 14 -12 14 -21 0 -11 -10 -15
-35 -15 -36 0 -48 15 -17 23 13 4 12 5 -5 6 -28 1 -38 -15 -22 -35 7 -9 26
-14 50 -12 44 2 58 -7 41 -24 -10 -10 -17 -10 -31 -1 -20 13 -31 8 -31 -14 0
-21 41 -15 67 9 l23 21 0 -26 c0 -27 16 -45 28 -32 4 4 1 10 -5 12 -20 7 -15
33 5 33 11 0 27 -9 37 -20 10 -11 24 -20 31 -20 21 0 25 17 6 31 -15 13 -16
12 -3 -3 12 -16 11 -18 -3 -18 -9 0 -21 9 -28 20 -7 11 -21 20 -31 20 -29 0
-57 19 -57 38 0 9 -9 23 -20 30 -26 16 -26 36 1 29 16 -4 18 -3 8 9 -13 16
-35 18 -43 5z"/>
<path d="M2183 2679 c-26 -10 -48 -45 -33 -54 5 -3 10 -15 10 -25 0 -14 10
-21 34 -25 48 -10 71 -3 71 20 0 16 -8 21 -39 25 -35 4 -37 7 -23 19 32 26 18
55 -20 40z m27 -18 c0 -5 -7 -12 -16 -15 -24 -9 -28 -7 -14 9 14 17 30 20 30
6z m35 -61 c-3 -5 -17 -10 -31 -10 -14 0 -22 4 -19 10 3 6 17 10 31 10 14 0
22 -4 19 -10z"/>
<path d="M2084 2609 c-8 -13 15 -30 36 -26 8 1 16 11 17 22 2 11 0 14 -3 8 -3
-7 -15 -13 -25 -13 -11 0 -17 5 -14 10 3 6 4 10 1 10 -3 0 -8 -5 -12 -11z"/>
<path d="M920 3055 c0 -8 5 -15 10 -15 6 0 10 7 10 15 0 8 -4 15 -10 15 -5 0
-10 -7 -10 -15z"/>
<path d="M1660 3036 c0 -26 -30 -48 -59 -41 -16 3 -39 0 -55 -9 -25 -13 -28
-20 -32 -78 -2 -34 -7 -74 -11 -88 -3 -14 -5 -31 -4 -39 1 -7 -7 -34 -18 -60
-20 -48 -19 -77 8 -144 14 -36 14 -82 0 -109 -8 -15 -6 -35 10 -87 16 -50 21
-85 18 -141 -5 -90 6 -136 41 -172 31 -34 44 -35 57 -6 6 13 26 30 45 39 29
14 34 22 32 44 -4 33 22 75 48 75 19 0 45 -21 52 -42 2 -6 9 -8 16 -4 9 5 5
21 -13 56 -19 38 -25 65 -25 115 0 58 3 68 30 97 l31 33 -26 -39 c-19 -29 -25
-52 -25 -93 0 -60 11 -89 71 -183 51 -79 59 -129 30 -184 -11 -21 -17 -44 -14
-50 5 -8 3 -8 -8 0 -15 12 -89 7 -89 -6 0 -14 27 -19 40 -7 10 9 11 9 6 0 -11
-20 29 -16 74 7 28 14 40 28 45 50 4 16 11 30 17 30 6 0 8 23 5 60 -3 44 -13
72 -36 108 -32 50 -65 85 -91 96 -8 3 -5 4 8 2 25 -5 29 6 8 26 -19 20 7 97
42 123 36 26 99 26 118 0 21 -29 14 -79 -11 -83 -54 -8 -65 -13 -65 -32 0 -11
11 -27 24 -35 20 -13 31 -14 71 -4 55 14 75 39 74 94 -1 42 -24 89 -39 80 -5
-3 -11 -1 -14 4 -8 12 -115 46 -159 50 -5 1 -6 5 -3 10 3 4 -4 26 -15 47 -16
30 -19 51 -15 88 4 40 1 54 -18 80 -30 41 -66 132 -66 166 0 22 -6 30 -30 39
-31 10 -60 59 -60 100 0 11 -4 23 -10 26 -5 3 -10 -1 -10 -9z m335 -742 c0
-26 -31 -30 -45 -5 -7 14 -7 21 0 21 5 0 10 -7 10 -15 0 -8 7 -15 15 -15 17 0
21 26 5 33 -6 3 -5 4 2 3 7 -2 13 -11 13 -22z"/>
<path d="M1227 3027 c-24 -17 -12 -49 17 -45 15 2 21 10 21 27 0 29 -14 36
-38 18z"/>
<path d="M921 3014 c0 -11 3 -14 6 -6 3 7 2 16 -1 19 -3 4 -6 -2 -5 -13z"/>
<path d="M1297 3016 c-8 -20 19 -47 39 -39 22 8 13 47 -12 51 -12 2 -24 -4
-27 -12z"/>
<path d="M1756 3023 c-4 -5 -14 -23 -22 -42 -12 -28 -12 -36 -2 -43 29 -18 42
0 43 55 1 36 -4 44 -19 30z"/>
<path d="M1140 3005 c-18 -21 -4 -47 22 -43 29 4 35 34 10 47 -15 8 -23 7 -32
-4z"/>
<path d="M1705 3001 c-3 -5 -1 -12 5 -16 5 -3 10 1 10 9 0 18 -6 21 -15 7z"/>
<path d="M1374 2986 c-8 -21 13 -46 32 -39 20 8 13 47 -9 51 -9 2 -20 -4 -23
-12z"/>
<path d="M900 2971 c-13 -25 -13 -124 0 -116 6 3 7 -1 4 -9 -3 -9 -1 -16 5
-16 7 0 11 28 11 80 0 44 -2 80 -5 80 -2 0 -9 -9 -15 -19z"/>
<path d="M971 2973 c0 -6 -4 -20 -7 -30 -5 -14 -4 -15 5 -7 7 7 11 20 8 30 -3
11 -5 14 -6 7z"/>
<path d="M1081 2951 c-15 -10 -8 -41 9 -41 15 0 25 29 14 40 -5 5 -15 5 -23 1z"/>
<path d="M1210 2951 c0 -16 18 -22 23 -9 3 10 9 10 25 1 16 -10 22 -10 25 0 3
9 9 9 25 0 12 -7 24 -9 26 -4 3 5 -1 12 -10 15 -25 10 -114 7 -114 -3z"/>
<path d="M2217 2946 c-7 -17 11 -36 33 -36 9 0 21 -5 28 -12 15 -15 16 -55 0
-60 -21 -7 3 -28 33 -28 33 0 39 16 9 25 -15 5 -19 12 -15 26 4 11 1 26 -5 34
-7 8 -9 15 -6 15 4 0 2 9 -4 20 -7 12 -16 17 -27 13 -11 -4 -14 -3 -9 5 5 8 0
12 -12 12 -11 0 -22 -6 -25 -14z"/>
<path d="M1940 2941 c0 -6 4 -13 10 -16 6 -3 7 1 4 9 -7 18 -14 21 -14 7z"/>
<path d="M990 2940 c-6 -13 -6 -80 1 -80 4 0 17 -20 27 -44 11 -24 26 -47 33
-51 7 -5 5 2 -4 16 -11 15 -17 45 -18 84 -1 33 -3 51 -6 40 -10 -47 -17 -48
-23 -5 -4 25 -8 43 -10 40z"/>
<path d="M1160 2936 c0 -2 7 -6 15 -10 8 -3 15 -1 15 4 0 6 -7 10 -15 10 -8 0
-15 -2 -15 -4z"/>
<path d="M1240 2930 c0 -7 -8 -10 -20 -7 -11 3 -20 1 -20 -4 0 -5 -7 -9 -16
-9 -20 0 -44 -24 -44 -44 0 -9 -6 -16 -12 -16 -7 0 -13 -11 -13 -25 0 -35 9
-31 23 9 16 45 32 57 95 71 61 14 115 0 158 -41 20 -20 28 -22 36 -12 12 14 2
52 -16 63 -12 7 -15 -16 -3 -31 4 -5 0 -1 -10 8 -9 10 -23 18 -32 18 -9 0 -16
4 -16 9 0 5 -8 7 -19 4 -10 -3 -22 0 -26 7 -5 8 -10 8 -21 -1 -11 -9 -17 -9
-29 1 -12 10 -15 10 -15 0z"/>
<path d="M1365 2930 c3 -5 11 -10 16 -10 6 0 7 5 4 10 -3 6 -11 10 -16 10 -6
0 -7 -4 -4 -10z"/>
<path d="M1126 2912 c-10 -12 -16 -29 -13 -39 4 -17 4 -17 12 2 5 11 13 23 18
26 5 4 8 12 5 19 -2 7 -10 5 -22 -8z"/>
<path d="M962 2900 c0 -14 2 -19 5 -12 2 6 2 18 0 25 -3 6 -5 1 -5 -13z"/>
<path d="M930 2879 c0 -5 5 -7 10 -4 6 3 10 8 10 11 0 2 -4 4 -10 4 -5 0 -10
-5 -10 -11z"/>
<path d="M1214 2875 c-7 -11 -8 -29 -4 -40 7 -18 9 -18 15 -3 3 9 5 27 3 40
-3 22 -4 22 -14 3z"/>
<path d="M1244 2876 c-3 -8 -4 -25 -2 -38 3 -22 4 -21 21 9 9 18 17 34 17 38
0 12 -31 4 -36 -9z"/>
<path d="M1288 2865 c-6 -14 -8 -28 -5 -32 9 -9 58 38 51 48 -10 17 -35 9 -46
-16z"/>
<path d="M1052 2859 c2 -6 8 -10 13 -10 5 0 11 4 13 10 2 6 -4 11 -13 11 -9 0
-15 -5 -13 -11z"/>
<path d="M1181 2841 c-1 -24 2 -32 9 -25 7 7 7 19 1 35 -9 23 -10 22 -10 -10z"/>
<path d="M1325 2840 c-18 -20 -17 -20 28 -20 48 0 56 7 35 28 -18 18 -43 15
-63 -8z"/>
<path d="M1060 2800 c0 -5 5 -10 10 -10 6 0 10 5 10 10 0 6 -4 10 -10 10 -5 0
-10 -4 -10 -10z"/>
<path d="M1355 2800 c-4 -6 5 -10 19 -10 14 0 26 5 26 10 0 6 -9 10 -19 10
-11 0 -23 -4 -26 -10z"/>
<path d="M1000 2786 c1 -20 36 -58 52 -55 11 3 6 12 -18 35 -19 17 -34 26 -34
20z"/>
<path d="M1198 2784 c-29 -15 -38 -44 -14 -44 7 0 19 7 26 15 16 19 54 19 84
0 22 -15 56 -12 56 6 0 16 -45 39 -78 39 -24 0 -31 -3 -26 -12 6 -10 5 -10 -7
-1 -11 9 -20 8 -41 -3z"/>
<path d="M1821 2791 c-8 -5 -9 -11 -3 -15 5 -3 12 1 16 9 6 17 6 18 -13 6z"/>
<path d="M2249 2784 c-12 -14 -11 -16 5 -13 11 2 21 10 24 17 5 17 -13 15 -29
-4z"/>
<path d="M2050 2770 c0 -5 5 -10 11 -10 5 0 7 5 4 10 -3 6 -8 10 -11 10 -2 0
-4 -4 -4 -10z"/>
<path d="M1904 2735 c-4 -8 -11 -12 -17 -8 -6 3 -7 1 -3 -5 11 -18 23 -14 29
8 6 23 -1 27 -9 5z"/>
<path d="M1340 2710 c19 -13 30 -13 30 0 0 6 -10 10 -22 10 -19 0 -20 -2 -8
-10z"/>
<path d="M2203 2470 c-45 -20 -68 -48 -78 -95 -16 -74 -27 -94 -61 -114 -19
-12 -42 -21 -50 -21 -8 0 -14 -9 -14 -20 0 -13 7 -20 20 -20 13 0 20 7 20 20
0 15 7 20 26 20 14 0 23 4 20 8 -3 5 7 18 23 29 19 15 35 42 50 89 12 38 28
72 34 76 7 4 35 8 64 8 43 0 54 -4 63 -21 13 -23 -2 -49 -28 -49 -13 0 -12 3
3 20 16 18 16 20 1 26 -35 14 -64 -40 -39 -75 19 -27 46 -26 79 2 35 31 37 77
4 112 -29 30 -76 32 -137 5z"/>
<path d="M984 2422 c-25 -26 -26 -31 -21 -122 3 -66 2 -84 -4 -60 -5 19 -9 59
-10 88 -1 29 -3 51 -5 49 -12 -12 -12 -106 0 -169 8 -41 12 -86 9 -102 -4 -18
-1 -31 8 -37 10 -6 10 -9 2 -9 -7 0 -13 -7 -13 -15 0 -9 6 -12 15 -9 18 7 19
-6 3 -41 -11 -23 -9 -29 9 -43 11 -10 23 -25 26 -35 4 -10 12 -15 18 -11 6 3
15 0 20 -7 11 -17 12 3 3 50 -7 34 -20 41 -27 14 -2 -10 -2 5 1 34 2 28 1 60
-3 70 -28 63 -36 163 -14 163 6 0 8 -17 4 -44 -7 -47 5 -67 30 -46 13 11 15 6
15 -28 0 -39 19 -69 28 -44 6 19 30 14 42 -8 12 -22 30 -27 30 -9 0 11 -32 55
-65 90 -8 9 -15 27 -16 40 0 22 -1 23 -9 4 -8 -18 -9 -17 -9 8 -1 16 -5 26
-11 22 -5 -3 -10 3 -10 15 0 12 -4 19 -9 16 -14 -9 -19 16 -10 41 5 13 4 25
-1 28 -6 4 -10 18 -9 33 0 24 1 25 9 7 9 -22 13 -13 14 40 1 20 6 30 16 30 23
0 24 -32 1 -61 -25 -32 -27 -52 -5 -61 8 -3 13 -12 10 -19 -3 -8 -1 -27 5 -42
7 -15 13 -22 16 -14 6 16 28 15 43 -3 18 -22 32 -7 28 32 -1 18 2 37 9 41 6 4
10 27 10 52 -1 25 2 53 7 63 11 24 -9 22 -34 -3 -11 -11 -20 -34 -21 -52 -1
-32 -1 -32 -10 -8 -6 20 -8 16 -5 -20 1 -25 6 -54 11 -65 8 -18 7 -18 -8 -6
-24 19 -32 78 -18 129 6 25 10 46 8 48 -1 2 -20 5 -40 8 -31 4 -42 0 -63 -22z
m3 -104 c-3 -8 -6 -5 -6 6 -1 11 2 17 5 13 3 -3 4 -12 1 -19z"/>
<path d="M1325 2402 c15 -22 29 -59 32 -81 3 -23 10 -41 14 -41 5 0 9 -5 9
-11 0 -5 -5 -7 -12 -3 -8 5 -9 0 -6 -14 4 -13 1 -22 -5 -22 -8 0 -7 -4 1 -12
18 -18 22 -7 29 67 4 46 3 66 -4 62 -6 -4 -10 1 -9 11 0 10 -5 16 -13 14 -8
-2 -11 3 -8 11 3 8 -2 21 -12 29 -37 31 -42 29 -16 -10z"/>
<path d="M1355 2430 c-3 -5 1 -10 9 -10 9 0 15 -3 15 -7 -3 -21 2 -33 16 -33
8 0 15 5 15 10 0 6 -4 10 -9 10 -5 0 -13 9 -16 20 -7 22 -20 26 -30 10z"/>
<path d="M2222 2423 c-15 -27 -16 -80 -1 -88 15 -10 25 3 12 16 -8 8 -8 20 -1
40 13 37 5 61 -10 32z"/>
<path d="M1243 2423 c-7 -2 -13 -12 -14 -21 0 -14 -2 -13 -10 3 -7 16 -8 13
-4 -13 3 -20 1 -31 -5 -27 -6 3 -10 2 -10 -4 0 -5 8 -15 18 -20 9 -6 13 -11 8
-11 -5 0 -18 7 -28 17 -10 9 -18 11 -18 5 0 -6 10 -18 22 -26 21 -15 21 -16 3
-16 -19 -1 -19 -1 -1 -11 13 -8 25 -8 43 0 23 11 25 16 19 51 -5 32 -3 40 9
40 8 0 20 -9 27 -20 14 -21 28 -27 28 -10 0 15 -51 70 -64 69 -6 0 -17 -3 -23
-6z"/>
<path d="M1962 2384 c2 -11 11 -20 22 -22 13 -3 17 1 14 14 -2 11 -11 20 -22
22 -13 3 -17 -1 -14 -14z"/>
<path d="M1896 2381 c-3 -4 1 -16 8 -26 13 -18 14 -18 24 2 6 11 8 23 5 27 -9
9 -31 7 -37 -3z"/>
<path d="M2181 2364 c-1 -18 7 -38 17 -47 20 -19 72 -23 72 -7 0 6 -10 8 -23
5 -26 -7 -39 5 -55 50 l-10 30 -1 -31z"/>
<path d="M1327 2328 c-2 -7 -1 -22 4 -33 6 -16 8 -14 8 13 1 33 -4 41 -12 20z"/>
<path d="M1877 2313 c-12 -11 -7 -43 6 -43 23 0 38 22 26 37 -13 14 -22 16
-32 6z"/>
<path d="M1021 2274 c0 -11 3 -14 6 -6 3 7 2 16 -1 19 -3 4 -6 -2 -5 -13z"/>
<path d="M1235 2270 c-3 -6 1 -7 9 -4 18 7 21 14 7 14 -6 0 -13 -4 -16 -10z"/>
<path d="M2155 2260 c-11 -12 -15 -26 -10 -37 6 -16 9 -15 32 12 14 17 22 24
19 18 -8 -15 3 -17 23 -4 7 5 10 14 7 20 -11 18 -51 13 -71 -9z"/>
<path d="M2246 2264 c-3 -9 -4 -20 0 -25 7 -12 54 -12 54 0 0 5 3 16 6 25 5
12 -1 16 -24 16 -18 0 -32 -6 -36 -16z m41 -20 c-3 -3 -12 -4 -19 -1 -8 3 -5
6 6 6 11 1 17 -2 13 -5z"/>
<path d="M1240 2250 c-9 -6 -10 -10 -3 -10 6 0 15 5 18 10 8 12 4 12 -15 0z"/>
<path d="M1270 2231 c0 -12 6 -21 16 -21 9 0 14 7 12 17 -5 25 -28 28 -28 4z"/>
<path d="M1227 2223 c-12 -12 -7 -22 8 -17 8 4 15 10 15 15 0 11 -14 12 -23 2z"/>
<path d="M1922 2213 c2 -10 10 -18 18 -18 8 0 16 8 18 18 2 12 -3 17 -18 17
-15 0 -20 -5 -18 -17z"/>
<path d="M1320 2205 c-11 -13 -10 -14 4 -9 9 3 16 10 16 15 0 13 -6 11 -20 -6z"/>
<path d="M2070 2206 c-14 -18 -10 -58 7 -63 7 -3 13 8 15 24 2 22 8 28 25 27
18 0 20 2 12 13 -15 17 -44 17 -59 -1z"/>
<path d="M2260 2201 c0 -6 5 -13 10 -16 6 -3 10 1 10 9 0 9 -4 16 -10 16 -5 0
-10 -4 -10 -9z"/>
<path d="M1728 2188 c17 -17 15 -38 -3 -38 -9 0 -12 6 -9 18 5 15 4 15 -6 -1
-16 -26 -5 -47 25 -47 17 0 29 8 37 24 15 34 4 56 -29 56 -21 0 -24 -3 -15
-12z m28 -46 c-18 -16 -19 -16 -12 1 3 10 6 24 6 30 0 8 4 7 12 -1 10 -9 8
-16 -6 -30z"/>
<path d="M2216 2175 c5 -18 2 -25 -9 -25 -8 0 -17 6 -20 13 -4 10 -7 10 -18 0
-9 -10 -10 -13 -1 -13 7 0 12 -9 12 -21 0 -18 -4 -20 -25 -15 -28 7 -35 -8 -8
-18 10 -4 26 3 43 19 14 14 36 25 47 25 30 0 38 16 12 23 -15 4 -20 11 -16 21
4 10 1 16 -9 16 -10 0 -13 -7 -8 -25z"/>
<path d="M778 2184 c-5 -4 -8 -18 -8 -30 0 -13 -4 -26 -10 -29 -5 -3 -10 -11
-10 -16 0 -6 6 -7 13 -3 9 6 8 3 -1 -8 -7 -9 -15 -43 -17 -75 -3 -38 -2 -51 4
-38 5 12 17 27 27 35 17 14 18 14 6 -2 -8 -10 -18 -34 -22 -55 l-9 -38 20 25
c16 20 18 20 10 4 -9 -20 -7 -67 5 -86 3 -4 22 -12 43 -18 57 -15 115 11 144
65 7 14 -1 10 -27 -12 -29 -27 -45 -33 -81 -33 -58 0 -80 21 -70 69 16 73 2
264 -17 245z m1 -123 c-13 -11 -26 -18 -28 -15 -7 7 21 34 36 34 10 0 8 -6 -8
-19z"/>
<path d="M1120 2158 c0 -18 4 -40 9 -47 8 -12 11 -9 16 11 8 30 -1 68 -16 68
-5 0 -9 -15 -9 -32z"/>
<path d="M1195 2180 c-3 -5 1 -10 9 -10 8 0 18 5 21 10 3 6 -1 10 -9 10 -8 0
-18 -4 -21 -10z"/>
<path d="M1346 2174 c-27 -71 39 -206 93 -189 12 3 26 15 31 25 9 17 6 20 -25
26 -19 3 -38 10 -41 15 -3 5 -10 7 -15 4 -5 -3 -6 1 -3 9 3 9 1 16 -5 16 -6 0
-8 7 -5 15 4 8 2 15 -4 15 -11 0 -10 49 1 68 5 7 3 12 -6 12 -8 0 -18 -7 -21
-16z"/>
<path d="M1962 2168 c2 -12 10 -23 18 -23 22 0 19 39 -3 43 -15 3 -18 -1 -15
-20z"/>
<path d="M1316 2171 c-4 -5 -3 -16 0 -24 3 -8 1 -18 -5 -22 -6 -3 -11 -11 -11
-18 0 -21 26 27 28 51 1 23 -3 28 -12 13z"/>
<path d="M1255 2160 c3 -5 1 -10 -5 -10 -6 0 -8 -4 -5 -10 10 -17 25 -11 25
10 0 11 -5 20 -11 20 -5 0 -7 -4 -4 -10z"/>
<path d="M1189 2144 c-12 -14 -11 -16 5 -13 11 2 21 10 24 17 5 17 -13 15 -29
-4z"/>
<path d="M1792 2148 c-19 -19 -15 -48 8 -48 14 0 20 -7 20 -21 0 -15 5 -20 22
-17 29 4 35 28 9 35 -16 4 -21 12 -19 31 3 29 -19 41 -40 20z"/>
<path d="M1394 2114 c0 -13 4 -24 9 -24 4 0 5 -6 1 -12 -4 -7 -3 -9 1 -5 13
11 15 37 4 37 -6 0 -8 4 -4 9 3 5 2 12 -3 15 -4 2 -8 -6 -8 -20z"/>
<path d="M2155 2130 c3 -5 8 -10 11 -10 2 0 4 5 4 10 0 6 -5 10 -11 10 -5 0
-7 -4 -4 -10z"/>
<path d="M2046 2114 c-20 -19 -20 -35 -2 -59 8 -12 19 -16 30 -12 16 6 16 8 2
23 -10 10 -14 24 -10 40 7 28 2 30 -20 8z"/>
<path d="M1185 2109 c-4 -6 -5 -13 -2 -16 7 -7 27 6 27 18 0 12 -17 12 -25 -2z"/>
<path d="M1693 2098 c-18 -4 -39 -18 -48 -30 -22 -32 -19 -90 6 -122 20 -25
22 -26 35 -9 12 17 13 17 14 1 0 -16 28 -38 48 -38 18 0 21 40 4 49 -15 9 -15
10 3 16 40 13 50 22 53 49 6 51 -60 99 -115 84z m57 -24 c0 -8 4 -13 9 -9 6 3
15 -3 21 -14 7 -14 7 -22 -1 -26 -6 -4 -8 -13 -5 -21 6 -15 -6 -17 -52 -8 -40
8 -45 32 -13 67 28 31 41 34 41 11z"/>
<path d="M1972 2093 c4 -22 43 -25 43 -3 0 8 -11 16 -23 18 -19 3 -23 0 -20
-15z"/>
<path d="M1236 2093 c-12 -12 -6 -44 10 -50 18 -7 35 13 27 33 -5 15 -29 25
-37 17z"/>
<path d="M2215 2080 c-4 -11 -10 -18 -15 -15 -8 5 -20 -18 -20 -38 1 -17 50
41 50 59 0 20 -8 17 -15 -6z"/>
<path d="M1185 2070 c-9 -14 6 -81 16 -74 5 3 6 -10 3 -28 -4 -27 -3 -30 6
-15 13 20 4 77 -11 77 -6 0 -6 8 1 19 5 11 10 22 10 25 0 10 -18 7 -25 -4z"/>
<path d="M1301 2062 c-1 -30 24 -79 48 -92 11 -5 32 -10 48 -9 27 0 27 1 5 9
-12 5 -25 16 -28 25 -3 8 -9 13 -13 10 -15 -9 -50 26 -54 53 -3 23 -4 23 -6 4z"/>
<path d="M2120 2054 c0 -8 9 -14 20 -14 11 0 20 4 20 9 0 5 -9 11 -20 14 -13
3 -20 0 -20 -9z"/>
<path d="M1056 2028 c-7 -35 -3 -67 7 -61 5 3 6 -8 2 -26 -9 -42 4 -61 21 -30
19 34 17 76 -3 88 -14 7 -15 12 -5 23 6 8 9 18 5 21 -12 13 -23 7 -27 -15z"/>
<path d="M1836 2041 c-3 -5 -3 -16 0 -25 3 -9 1 -16 -6 -16 -6 0 -8 -4 -5 -10
8 -13 45 -13 45 -1 0 5 -7 17 -16 25 -14 15 -14 16 3 14 10 -2 20 2 23 7 6 13
-36 19 -44 6z"/>
<path d="M1982 2008 c2 -12 10 -23 18 -23 22 0 19 39 -3 43 -15 3 -18 -1 -15
-20z"/>
<path d="M1132 2008 c-18 -18 -14 -63 9 -92 11 -14 17 -26 12 -27 -4 0 1 -4
12 -8 11 -5 23 -7 27 -5 7 5 -21 66 -35 75 -6 4 -7 14 -4 23 4 11 1 16 -11 17
-14 0 -14 2 2 8 11 4 15 10 9 14 -5 3 -15 1 -21 -5z"/>
<path d="M1250 2000 c0 -19 20 -27 33 -13 8 7 -11 33 -24 33 -5 0 -9 -9 -9
-20z"/>
<path d="M1477 2002 c-24 -26 -22 -87 3 -112 29 -29 73 -30 103 -1 16 16 16
20 2 55 -18 42 -39 54 -66 37 -11 -6 -19 -7 -19 -2 0 6 8 15 18 20 9 6 12 11
6 11 -18 0 -42 -33 -47 -65 l-4 -30 -2 30 c0 17 6 41 15 53 18 27 13 29 -9 4z
m68 -90 c19 1 36 0 39 -3 3 -3 -11 -6 -30 -7 -37 -3 -64 11 -64 32 0 6 5 3 11
-7 8 -13 20 -18 44 -15z m8 -29 c-7 -2 -21 -2 -30 0 -10 3 -4 5 12 5 17 0 24
-2 18 -5z"/>
<path d="M2050 1991 c0 -35 18 -51 45 -41 19 7 19 7 -2 14 -16 5 -23 15 -23
32 0 13 -4 24 -10 24 -5 0 -10 -13 -10 -29z"/>
<path d="M2146 2004 c-17 -12 -17 -14 -4 -14 9 0 20 5 23 11 11 17 2 18 -19 3z"/>
<path d="M908 1930 c-41 -47 -24 -54 23 -10 22 20 30 33 23 40 -7 7 -22 -3
-46 -30z"/>
<path d="M1805 1960 c-3 -5 1 -10 9 -10 9 0 16 5 16 10 0 6 -4 10 -9 10 -6 0
-13 -4 -16 -10z"/>
<path d="M614 1944 c3 -9 6 -17 6 -20 0 -2 7 -1 15 2 12 5 13 10 4 20 -16 19
-33 18 -25 -2z"/>
<path d="M1220 1936 c0 -14 5 -28 10 -31 6 -4 10 7 10 24 0 17 -4 31 -10 31
-5 0 -10 -11 -10 -24z"/>
<path d="M1305 1950 c-4 -7 -1 -16 6 -21 17 -10 26 8 11 23 -6 6 -12 6 -17 -2z"/>
<path d="M1944 1939 c-10 -17 13 -36 27 -22 12 12 4 33 -11 33 -5 0 -12 -5
-16 -11z"/>
<path d="M680 1936 c0 -2 8 -10 18 -17 15 -13 16 -12 3 4 -13 16 -21 21 -21
13z"/>
<path d="M1380 1915 c0 -8 5 -15 10 -15 6 0 10 7 10 15 0 8 -4 15 -10 15 -5 0
-10 -7 -10 -15z"/>
<path d="M660 1910 c0 -5 5 -10 11 -10 5 0 7 5 4 10 -3 6 -8 10 -11 10 -2 0
-4 -4 -4 -10z"/>
<path d="M1105 1907 c-8 -19 10 -47 31 -47 19 0 17 14 -5 41 -18 22 -20 22
-26 6z"/>
<path d="M1251 1905 c-1 -11 8 -26 19 -33 18 -11 20 -10 20 8 0 11 -6 20 -14
20 -8 0 -17 6 -19 13 -3 6 -6 3 -6 -8z"/>
<path d="M1301 1874 c0 -11 3 -14 6 -6 3 7 2 16 -1 19 -3 4 -6 -2 -5 -13z"/>
<path d="M1340 1873 c0 -4 5 -15 10 -23 8 -13 10 -13 10 2 0 9 -4 20 -10 23
-5 3 -10 3 -10 -2z"/>
<path d="M1370 1871 c0 -6 4 -13 10 -16 6 -3 7 1 4 9 -7 18 -14 21 -14 7z"/>
<path d="M1395 1870 c3 -5 11 -10 16 -10 6 0 7 5 4 10 -3 6 -11 10 -16 10 -6
0 -7 -4 -4 -10z"/>
<path d="M2654 3330 c-52 -21 -70 -94 -34 -130 20 -20 50 -26 63 -14 13 14
-27 50 -50 46 -26 -5 -32 13 -7 22 8 3 12 10 9 16 -3 5 -1 10 5 10 6 0 8 5 5
10 -3 6 -3 15 1 21 5 8 9 7 14 -1 5 -7 22 -13 39 -12 31 1 41 -11 20 -24 -6
-3 8 -15 33 -26 50 -23 51 -23 56 -9 2 6 -6 11 -17 11 -25 0 -28 15 -5 24 8 3
12 11 8 17 -4 8 -9 7 -15 -2 -6 -10 -9 -8 -9 9 0 35 -64 53 -116 32z"/>
<path d="M3965 3330 c-4 -6 6 -10 22 -10 22 0 25 2 13 10 -19 12 -27 12 -35 0z"/>
<path d="M2955 3319 c-15 -6 -11 -8 18 -8 20 -1 37 1 37 3 0 9 -37 12 -55 5z"/>
<path d="M3031 3326 c11 -9 69 -15 64 -6 -3 6 -20 10 -37 10 -17 0 -29 -2 -27
-4z"/>
<path d="M3313 3318 c1 -7 11 -16 22 -20 18 -5 18 -6 -3 -7 -21 -1 -86 -41
-67 -41 4 0 3 -6 -2 -12 -16 -20 -25 -68 -13 -68 5 0 10 11 10 24 0 13 7 30
16 37 15 12 18 11 28 -5 29 -49 59 -76 85 -76 52 0 78 52 55 110 -12 29 -25
42 -55 54 -47 19 -80 21 -76 4z m118 -84 c14 -18 3 -32 -13 -16 -8 8 -15 5
-28 -11 l-17 -21 -12 22 c-7 12 -9 27 -6 32 3 6 2 10 -3 10 -6 0 -13 7 -16 16
-5 12 0 14 23 11 21 -4 32 0 37 11 5 14 8 11 15 -11 4 -16 13 -35 20 -43z"/>
<path d="M4240 3317 c0 -8 14 -14 36 -15 20 -2 43 -9 51 -17 17 -18 27 -20 17
-3 -5 8 -2 9 9 5 10 -3 17 -2 17 3 0 6 5 10 10 10 6 0 10 -7 10 -15 0 -8 6
-15 13 -15 8 0 7 -3 -3 -10 -12 -7 -12 -12 -2 -22 17 -17 15 -31 -3 -24 -9 3
-24 -3 -35 -14 -19 -19 -38 -11 -25 10 9 14 -33 80 -51 80 -16 0 -45 -27 -70
-65 -15 -23 -15 -28 -3 -35 10 -7 18 -2 27 15 11 22 40 45 56 45 3 0 6 -14 6
-31 0 -49 16 -69 54 -69 26 0 41 8 60 31 38 45 34 81 -11 118 -33 27 -45 31
-100 31 -45 0 -63 -4 -63 -13z"/>
<path d="M3251 3303 c-15 -13 -18 -22 -12 -33 8 -11 12 -8 22 15 6 17 13 24
16 17 5 -13 23 -7 23 9 0 15 -26 10 -49 -8z"/>
<path d="M3575 3306 c-86 -38 -96 -136 -17 -164 27 -9 33 -7 57 18 17 18 25
36 23 51 -3 21 1 24 27 23 17 -1 40 -5 53 -9 14 -5 22 -3 22 5 0 6 -9 14 -20
17 -11 3 -20 9 -20 13 0 4 -18 7 -39 7 -34 0 -40 -3 -46 -26 -4 -15 -2 -27 4
-29 6 -2 11 -11 11 -19 0 -9 -6 -13 -14 -10 -9 4 -17 -2 -21 -14 -6 -19 -28
-23 -25 -5 1 4 -8 16 -19 25 -27 23 -27 37 0 44 17 5 20 11 15 30 -5 21 -3 24
13 20 13 -3 17 -12 15 -31 -2 -18 -1 -20 2 -7 4 11 10 25 15 31 5 6 4 15 -3
22 -7 7 -8 12 -2 12 6 0 15 -5 22 -12 9 -9 12 -8 12 5 0 20 -23 21 -65 3z"/>
<path d="M3664 3301 c23 -26 49 -28 44 -3 -2 10 -14 18 -33 20 -30 4 -30 4
-11 -17z"/>
<path d="M2895 3300 c-3 -6 1 -7 9 -4 18 7 21 14 7 14 -6 0 -13 -4 -16 -10z"/>
<path d="M4171 3272 l-33 -37 12 -82 c10 -66 15 -82 31 -86 20 -5 39 18 39 48
0 24 -20 7 -21 -18 -1 -15 -4 -11 -11 13 -5 19 -15 41 -21 49 -10 12 -9 14 6
8 20 -8 24 22 5 41 -10 10 -10 15 1 21 8 5 11 16 7 26 -4 12 -2 16 8 12 13 -5
26 12 26 34 0 17 -15 8 -49 -29z"/>
<path d="M3036 3288 c-10 -5 -27 -7 -39 -4 -28 7 -47 -10 -47 -43 0 -14 -5
-33 -10 -41 -9 -13 -11 -13 -21 0 -9 13 -10 12 -5 -3 3 -10 6 -23 6 -28 0 -5
7 -9 15 -9 9 0 15 10 16 28 l1 27 7 -25 c8 -30 51 -42 51 -14 0 17 1 17 14 -1
16 -22 46 -14 47 12 1 12 3 9 8 -7 11 -39 46 -38 60 1 16 46 14 98 -4 105 -22
9 -45 -15 -44 -45 1 -17 3 -20 6 -8 7 26 33 21 33 -7 0 -14 -5 -28 -10 -31
-17 -11 -40 22 -40 58 0 38 -16 51 -44 35z m-19 -70 c-2 -13 -4 -5 -4 17 -1
22 1 32 4 23 2 -10 2 -28 0 -40z m-27 11 c0 -17 -4 -28 -10 -24 -5 3 -10 17
-10 31 0 13 5 24 10 24 6 0 10 -14 10 -31z m70 1 c0 -16 -4 -30 -10 -30 -5 0
-10 14 -10 30 0 17 5 30 10 30 6 0 10 -13 10 -30z"/>
<path d="M3736 3270 c8 -31 20 -45 28 -32 3 5 -3 21 -15 33 l-20 24 7 -25z"/>
<path d="M2888 3267 c-32 -12 -34 -19 -13 -37 12 -10 15 -9 15 6 0 15 2 16 9
5 6 -10 10 -10 16 -1 6 9 10 9 17 -1 6 -10 8 -7 6 10 -4 29 -14 32 -50 18z"/>
<path d="M3932 3255 c-7 -14 -12 -42 -12 -61 0 -39 -15 -38 -23 1 -2 15 1 32
9 40 20 20 17 35 -7 35 -20 0 -21 -3 -14 -57 4 -32 10 -62 15 -67 14 -15 30 4
31 37 0 31 1 31 10 7 6 -13 15 -28 22 -32 21 -13 26 2 10 32 -17 35 -10 65 13
56 11 -4 14 -1 12 12 -2 10 -14 18 -29 20 -19 2 -28 -3 -37 -23z"/>
<path d="M2820 3256 c0 -9 5 -16 10 -16 6 0 10 4 10 9 0 6 -4 13 -10 16 -5 3
-10 -1 -10 -9z"/>
<path d="M4016 3254 c-12 -32 -6 -102 9 -108 16 -6 26 9 45 68 10 32 10 40 -1
47 -22 14 -46 10 -53 -7z m38 -13 c3 -5 0 -26 -8 -47 -12 -36 -14 -37 -20 -16
-13 41 10 93 28 63z"/>
<path d="M2686 3245 c4 -8 11 -15 16 -15 6 0 5 6 -2 15 -7 8 -14 15 -16 15 -2
0 -1 -7 2 -15z"/>
<path d="M3825 3250 c-9 -15 4 -84 19 -106 16 -21 36 -10 35 19 0 21 -1 21 -9
2 -7 -18 -9 -18 -19 9 -13 32 -7 61 9 51 5 -3 10 0 10 8 0 8 -7 18 -16 21 -21
8 -22 8 -29 -4z"/>
<path d="M3161 3219 c-14 -40 -14 -76 -1 -84 6 -3 15 6 20 20 12 33 13 45 0
25 -5 -8 -12 -12 -15 -8 -10 10 5 49 16 43 5 -4 9 3 9 14 0 31 -17 25 -29 -10z"/>
<path d="M3216 3235 c4 -8 10 -15 15 -15 4 0 6 7 3 15 -4 8 -10 15 -15 15 -4
0 -6 -7 -3 -15z"/>
<path d="M4084 3215 c-18 -44 -18 -69 1 -85 20 -17 33 -4 40 40 5 29 4 31 -4
13 -10 -23 -31 -32 -31 -13 0 19 23 59 31 54 5 -3 9 -1 9 4 0 6 -7 13 -16 16
-11 4 -19 -4 -30 -29z"/>
<path d="M2840 3216 c0 -9 5 -16 10 -16 6 0 10 4 10 9 0 6 -4 13 -10 16 -5 3
-10 -1 -10 -9z"/>
<path d="M3770 3205 c0 -8 4 -15 10 -15 5 0 7 7 4 15 -4 8 -8 15 -10 15 -2 0
-4 -7 -4 -15z"/>
<path d="M2800 3201 c0 -5 7 -15 17 -22 15 -13 15 -12 4 9 -12 23 -21 28 -21
13z"/>
<path d="M2871 3194 c0 -12 6 -27 14 -34 13 -11 15 -8 14 21 0 27 -2 30 -8 14
l-8 -20 -5 20 c-5 19 -6 19 -7 -1z"/>
<path d="M3725 3136 c0 -41 3 -72 8 -69 4 2 7 15 7 29 0 17 4 23 12 18 8 -5 9
-2 5 9 -4 10 -10 24 -14 34 -4 11 -3 14 5 9 15 -9 15 -1 2 25 -19 34 -25 20
-25 -55z"/>
<path d="M3204 3189 c-3 -6 -1 -16 5 -22 8 -8 11 -5 11 11 0 24 -5 28 -16 11z"/>
<path d="M3777 3166 c-11 -29 -8 -46 8 -46 16 0 18 14 6 44 -7 18 -8 18 -14 2z"/>
<path d="M2840 3154 c0 -8 5 -12 10 -9 6 3 10 10 10 16 0 5 -4 9 -10 9 -5 0
-10 -7 -10 -16z"/>
<path d="M4205 3160 c-3 -5 -1 -10 4 -10 6 0 11 5 11 10 0 6 -2 10 -4 10 -3 0
-8 -4 -11 -10z"/>
<path d="M3243 3145 c-3 -9 -3 -18 -1 -21 3 -3 8 4 11 16 6 23 -1 27 -10 5z"/>
<path d="M2810 3121 c0 -25 6 -27 13 -6 4 8 2 17 -3 20 -6 4 -10 -3 -10 -14z"/>
<path d="M3200 3125 c0 -8 4 -15 10 -15 5 0 7 7 4 15 -4 8 -8 15 -10 15 -2 0
-4 -7 -4 -15z"/>
<path d="M3680 3118 c-43 -22 -70 -23 -113 -2 -33 16 -36 16 -73 -10 -43 -29
-90 -34 -120 -11 -10 8 -22 15 -27 15 -4 0 -4 -49 -1 -108 8 -131 2 -172 -32
-205 l-26 -26 21 -30 c12 -17 27 -44 32 -61 12 -32 34 -31 26 1 -7 25 17 49
42 42 15 -4 22 1 27 21 12 50 67 57 78 10 4 -15 14 -24 26 -24 11 0 27 -12 37
-27 9 -16 18 -30 20 -32 1 -2 9 2 18 9 8 7 26 10 40 8 15 -3 25 -1 25 6 0 7
14 34 31 60 l30 48 -27 42 c-37 55 -41 112 -15 210 12 44 20 80 18 81 -1 0
-18 -7 -37 -17z"/>
<path d="M2841 3104 c0 -11 3 -14 6 -6 3 7 2 16 -1 19 -3 4 -6 -2 -5 -13z"/>
<path d="M3246 3092 c-4 -13 -5 -26 -2 -29 10 -11 18 4 14 29 l-4 23 -8 -23z"/>
<path d="M3204 3065 c3 -22 6 -52 6 -67 0 -16 5 -28 11 -28 6 0 9 7 5 15 -3 8
-1 15 5 15 6 0 6 7 -1 20 -6 11 -9 24 -6 28 2 4 -2 18 -10 32 -15 24 -15 24
-10 -15z"/>
<path d="M3771 3086 c-8 -9 -11 -19 -7 -23 9 -9 29 13 24 27 -2 8 -8 7 -17 -4z"/>
<path d="M2825 3070 c-3 -5 -1 -10 4 -10 6 0 11 5 11 10 0 6 -2 10 -4 10 -3 0
-8 -4 -11 -10z"/>
<path d="M2877 3045 c-9 -20 -16 -52 -16 -73 1 -20 3 -28 6 -17 2 11 11 42 20
68 18 58 13 70 -10 22z"/>
<path d="M3956 3062 c-4 -10 -2 -30 2 -43 9 -23 10 -23 17 9 8 38 -9 68 -19
34z"/>
<path d="M2790 3060 c0 -5 5 -10 10 -10 6 0 10 5 10 10 0 6 -4 10 -10 10 -5 0
-10 -4 -10 -10z"/>
<path d="M3820 3038 c-11 -18 -20 -37 -20 -42 0 -12 1 -10 28 37 26 45 19 50
-8 5z"/>
<path d="M4217 3057 c-11 -29 -9 -53 4 -40 6 6 9 21 7 34 -3 21 -4 22 -11 6z"/>
<path d="M3000 3013 c0 -28 3 -34 10 -23 13 20 13 47 0 55 -6 4 -10 -9 -10
-32z"/>
<path d="M3151 3035 c0 -36 26 -121 33 -105 4 9 -2 40 -13 70 -11 30 -20 46
-20 35z"/>
<path d="M3710 3034 c0 -8 5 -12 10 -9 6 3 10 10 10 16 0 5 -4 9 -10 9 -5 0
-10 -7 -10 -16z"/>
<path d="M3755 3030 c-18 -20 -16 -38 3 -26 8 5 24 46 18 46 -2 0 -11 -9 -21
-20z"/>
<path d="M4010 3035 c-7 -9 -10 -18 -7 -21 10 -10 47 7 47 22 0 19 -24 18 -40
-1z"/>
<path d="M4170 3038 c0 -18 18 -34 28 -24 3 4 -2 14 -11 23 -16 16 -17 16 -17
1z"/>
<path d="M2815 3030 c-3 -5 -1 -10 4 -10 6 0 11 5 11 10 0 6 -2 10 -4 10 -3 0
-8 -4 -11 -10z"/>
<path d="M2956 3032 c-5 -9 18 -42 30 -42 8 0 4 16 -9 35 -9 11 -16 14 -21 7z"/>
<path d="M3251 3024 c0 -11 3 -14 6 -6 3 7 2 16 -1 19 -3 4 -6 -2 -5 -13z"/>
<path d="M3900 3032 c0 -5 11 -19 24 -31 25 -23 25 -23 19 -2 -5 21 -43 50
-43 33z"/>
<path d="M2785 3020 c3 -5 8 -10 11 -10 2 0 4 5 4 10 0 6 -5 10 -11 10 -5 0
-7 -4 -4 -10z"/>
<path d="M3047 3023 c-4 -3 -7 -13 -7 -21 0 -12 3 -12 15 -2 8 7 15 16 15 21
0 11 -14 12 -23 2z"/>
<path d="M4136 2989 c4 -22 0 -50 -10 -74 -20 -46 -15 -55 9 -18 19 29 22 100
5 117 -6 6 -7 -3 -4 -25z"/>
<path d="M2807 2978 c-3 -18 -1 -37 4 -42 5 -6 9 7 9 32 0 50 -6 54 -13 10z"/>
<path d="M3700 2965 c0 -25 4 -45 9 -45 5 0 9 20 9 45 -1 25 -5 45 -10 45 -4
0 -8 -20 -8 -45z"/>
<path d="M3835 2984 c-26 -27 -16 -75 22 -99 39 -24 40 -32 8 -47 -34 -15 -78
5 -98 45 -9 18 -16 25 -16 16 -1 -9 8 -28 20 -43 17 -22 18 -26 4 -26 -9 0
-27 11 -40 25 -30 30 -32 23 -4 -16 17 -24 28 -29 62 -29 l42 -1 -38 -13 c-49
-18 -67 -34 -84 -73 -31 -76 -8 -139 64 -174 42 -21 62 -24 168 -24 185 0 275
37 290 118 5 26 2 47 -11 73 -24 47 -59 73 -121 90 l-48 13 47 0 c47 1 70 14
43 25 -8 3 -25 2 -38 -2 -54 -20 -76 15 -32 50 30 24 32 61 5 88 -24 24 -48
25 -78 4 -17 -12 -22 -25 -22 -59 0 -59 8 -75 44 -91 l31 -13 -41 -1 c-23 0
-70 -2 -105 -5 -53 -4 -58 -3 -32 5 48 15 76 57 70 103 -3 21 -13 47 -23 58
-21 23 -67 25 -89 3z m76 -4 c35 -19 16 -100 -24 -100 -24 0 -57 32 -57 55 0
44 40 67 81 45z m157 -12 c33 -33 -6 -91 -47 -69 -27 15 -32 35 -15 60 17 23
44 27 62 9z m39 -184 c70 -11 118 -84 94 -146 -31 -83 -267 -125 -400 -72 -76
30 -106 113 -60 163 53 57 204 80 366 55z"/>
<path d="M3859 2961 c-20 -16 -22 -23 -13 -38 16 -27 51 -28 64 -2 10 18 9 25
-7 41 -19 19 -20 19 -44 -1z m31 -27 c0 -8 -4 -12 -10 -9 -5 3 -10 10 -10 16
0 5 5 9 10 9 6 0 10 -7 10 -16z"/>
<path d="M4023 2963 c-22 -8 -15 -40 11 -45 23 -5 25 1 17 45 -1 8 -10 8 -28
0z"/>
<path d="M3950 2748 c0 -7 5 -20 10 -28 8 -12 10 -12 11 5 0 19 1 19 8 1 7
-18 8 -18 14 -2 4 10 5 22 1 27 -8 14 -44 11 -44 -3z"/>
<path d="M3866 2741 c-9 -14 41 -54 60 -47 15 6 15 9 -6 31 -24 26 -45 32 -54
16z m60 -38 c-7 -7 -26 7 -26 19 0 6 6 6 15 -2 9 -7 13 -15 11 -17z"/>
<path d="M4027 2732 c-22 -24 -21 -42 1 -42 23 0 56 35 47 49 -10 16 -30 13
-48 -7z m20 -19 c-9 -9 -19 -14 -23 -11 -10 10 6 28 24 28 15 0 15 -1 -1 -17z"/>
<path d="M3941 2677 c-14 -17 -4 -27 25 -27 39 0 56 10 43 26 -15 18 -53 18
-68 1z m54 -7 c-3 -5 -12 -10 -20 -10 -8 0 -17 5 -20 10 -4 6 5 10 20 10 15 0
24 -4 20 -10z"/>
<path d="M4075 2686 c6 -2 24 -8 40 -12 27 -7 23 -9 -30 -14 l-60 -7 60 -1
c96 -3 120 27 28 34 -26 2 -43 2 -38 0z"/>
<path d="M3796 2672 c-17 -28 62 -47 99 -23 18 11 15 12 -18 7 -49 -6 -84 5
-47 15 l25 7 -27 1 c-15 1 -29 -3 -32 -7z"/>
<path d="M3990 2618 c0 -31 -16 -38 -23 -10 -3 10 -5 6 -6 -11 -1 -24 3 -28
22 -25 23 3 32 34 16 60 -6 9 -9 4 -9 -14z"/>
<path d="M3886 2614 c-21 -21 -20 -24 7 -24 16 0 18 3 8 9 -11 7 -10 11 5 20
11 6 14 11 7 11 -6 0 -19 -7 -27 -16z"/>
<path d="M4057 2613 c6 -16 5 -17 -12 -3 -16 13 -18 13 -13 0 2 -8 17 -16 31
-17 29 -2 34 6 15 25 -18 18 -28 15 -21 -5z"/>
<path d="M4217 2993 c-11 -10 -8 -35 3 -28 6 3 10 1 10 -4 0 -6 -4 -11 -10
-11 -5 0 -10 -7 -10 -16 0 -32 25 -6 28 29 3 34 -5 46 -21 30z"/>
<path d="M2770 2983 c0 -4 5 -15 10 -23 8 -13 10 -13 10 2 0 9 -4 20 -10 23
-5 3 -10 3 -10 -2z"/>
<path d="M2928 2983 c7 -3 16 -2 19 1 4 3 -2 6 -13 5 -11 0 -14 -3 -6 -6z"/>
<path d="M3046 2974 c-10 -10 -16 -33 -16 -64 0 -58 23 -80 80 -79 19 0 28 3
20 6 -8 3 -21 12 -27 21 -11 13 -10 19 5 36 15 18 15 19 0 8 -9 -8 -27 -12
-40 -10 -18 2 -24 10 -26 35 -3 26 2 34 25 47 18 10 22 15 11 16 -9 0 -24 -7
-32 -16z"/>
<path d="M3252 2970 c0 -14 2 -19 5 -12 2 6 2 18 0 25 -3 6 -5 1 -5 -13z"/>
<path d="M3747 2977 c-11 -29 -9 -53 4 -40 6 6 9 21 7 34 -3 21 -4 22 -11 6z"/>
<path d="M4180 2981 c0 -5 5 -13 10 -16 6 -3 10 -2 10 4 0 5 -4 13 -10 16 -5
3 -10 2 -10 -4z"/>
<path d="M2895 2969 c-4 -6 -5 -12 -2 -15 2 -3 7 2 10 11 7 17 1 20 -8 4z"/>
<path d="M2922 2954 c-18 -13 -21 -19 -11 -30 12 -15 45 -19 53 -6 2 4 -1 17
-8 30 -11 21 -13 21 -34 6z m15 -26 c-3 -8 -6 -5 -6 6 -1 11 2 17 5 13 3 -3 4
-12 1 -19z"/>
<path d="M3053 2944 c-3 -8 -1 -20 6 -27 8 -8 11 -7 11 6 0 10 5 14 15 11 11
-5 13 -2 9 10 -8 20 -33 21 -41 0z"/>
<path d="M3222 2940 c0 -14 2 -19 5 -12 2 6 2 18 0 25 -3 6 -5 1 -5 -13z"/>
<path d="M3247 2926 c-4 -10 -5 -21 -2 -24 9 -9 17 6 13 25 -3 17 -4 17 -11
-1z"/>
<path d="M4181 2924 c0 -11 3 -14 6 -6 3 7 2 16 -1 19 -3 4 -6 -2 -5 -13z"/>
<path d="M2967 2903 c-15 -15 -22 -16 -50 -5 -29 10 -30 10 -13 -3 11 -8 23
-15 28 -15 4 0 8 -4 8 -9 0 -13 -67 -34 -81 -25 -8 4 -9 3 -5 -4 16 -26 -21
-10 -47 20 -26 31 -28 31 -22 8 8 -31 41 -60 69 -61 19 0 19 -1 -4 -10 -67
-27 -104 -102 -80 -164 30 -78 132 -120 274 -113 166 9 226 53 226 164 0 40
-5 51 -34 79 -43 41 -99 55 -218 56 -71 0 -88 3 -72 11 26 12 47 49 42 72 -3
16 -4 16 -21 -1z m221 -133 c106 -60 62 -181 -77 -211 -79 -17 -207 -8 -256
17 -54 27 -81 80 -65 128 24 73 90 97 250 93 89 -3 112 -7 148 -27z"/>
<path d="M3013 2763 c-15 -6 -17 -49 -3 -58 6 -4 10 5 10 19 0 29 16 35 23 9
4 -15 5 -15 6 -2 1 20 -19 38 -36 32z"/>
<path d="M3084 2736 c-16 -13 -26 -28 -21 -32 4 -4 17 2 30 14 25 24 37 28 37
12 0 -5 -14 -17 -31 -25 -17 -9 -29 -19 -26 -21 3 -3 19 2 37 11 22 12 30 22
28 37 -4 31 -22 32 -54 4z"/>
<path d="M2907 2736 c-6 -15 22 -46 42 -46 8 0 6 8 -5 25 -19 29 -9 33 19 8
19 -17 20 -17 8 5 -13 25 -56 30 -64 8z"/>
<path d="M2863 2683 c-7 -2 -13 -11 -13 -19 0 -10 13 -14 48 -13 46 2 46 2 12
9 -37 8 -32 13 10 11 23 -1 23 0 5 8 -22 11 -44 12 -62 4z"/>
<path d="M2982 2683 c-13 -5 -7 -23 9 -23 6 0 8 4 5 9 -4 5 0 12 6 14 7 3 9 5
3 5 -5 0 -16 -2 -23 -5z"/>
<path d="M3033 2675 c0 -8 7 -15 15 -15 7 0 12 5 10 12 -6 18 -25 21 -25 3z"/>
<path d="M3125 2680 c-16 -7 -11 -9 22 -9 23 -1 45 -6 48 -11 4 -7 -7 -8 -33
-4 -25 4 -42 2 -46 -5 -5 -7 9 -11 43 -11 39 0 51 4 51 15 0 9 -12 20 -26 25
-29 12 -32 12 -59 0z"/>
<path d="M3060 2635 c0 -9 4 -14 9 -10 5 3 12 1 16 -5 3 -5 0 -10 -7 -10 -8 0
-7 -5 4 -16 15 -16 38 -12 38 6 0 5 -13 18 -30 30 -26 18 -30 19 -30 5z"/>
<path d="M3002 2628 c-7 -7 -12 -20 -12 -29 0 -23 39 -36 51 -18 12 19 11 52
-1 44 -5 -3 -10 -13 -10 -21 0 -8 -5 -14 -10 -14 -6 0 -8 11 -4 25 7 28 4 31
-14 13z"/>
<path d="M2914 2616 c-14 -11 -16 -18 -8 -26 17 -17 44 -9 63 20 l16 24 -25
-17 c-30 -21 -47 -22 -30 -2 16 19 9 19 -16 1z"/>
<path d="M4212 2898 c-14 -14 -16 -28 -3 -28 9 0 24 30 18 36 -2 2 -9 -2 -15
-8z"/>
<path d="M3190 2855 c-7 -8 -19 -15 -27 -15 -24 0 -4 -18 28 -25 22 -5 34 -3
40 6 15 23 10 30 -12 19 -26 -14 -36 -6 -19 15 7 8 10 15 7 15 -2 0 -10 -7
-17 -15z"/>
<path d="M4145 2860 c-3 -5 1 -10 10 -10 9 0 13 5 10 10 -3 6 -8 10 -10 10 -2
0 -7 -4 -10 -10z"/>
<path d="M4179 2833 c-13 -16 -12 -17 4 -4 16 13 21 21 13 21 -2 0 -10 -8 -17
-17z"/>
<path d="M3457 2753 c-11 -10 -8 -52 4 -75 8 -15 8 -22 -1 -28 -16 -10 -4 -43
13 -37 12 4 12 13 4 95 -5 45 -9 56 -20 45z"/>
<path d="M3386 2702 c-6 -10 32 -44 45 -40 11 4 -18 48 -31 48 -5 0 -11 -4
-14 -8z"/>
<path d="M3502 2680 c-8 -23 -8 -33 3 -43 18 -18 75 -10 75 10 0 12 -8 14 -35
10 -35 -6 -49 6 -20 17 19 7 20 36 1 36 -8 0 -19 -13 -24 -30z"/>
<path d="M3614 2655 c-4 -9 -2 -21 4 -27 16 -16 47 -5 47 17 0 26 -42 34 -51
10z"/>
<path d="M3287 2654 c-4 -4 -7 -16 -7 -26 0 -14 6 -19 23 -16 14 2 22 10 22
23 0 20 -25 32 -38 19z"/>
<path d="M3362 2641 c-7 -4 -10 -15 -6 -25 5 -13 13 -16 33 -11 21 5 46 25 38
31 -11 8 -55 11 -65 5z"/>
<path d="M3414 2586 c-15 -12 -16 -17 -7 -27 10 -10 17 -9 33 6 32 29 10 47
-26 21z"/>
<path d="M3476 2578 c-18 -25 -21 -74 -6 -83 11 -7 20 28 17 64 -3 36 20 37
38 2 18 -35 42 -41 40 -11 -2 23 -32 49 -57 50 -9 0 -24 -10 -32 -22z"/>
<path d="M2780 2551 c0 -29 12 -40 32 -30 15 8 17 13 7 25 -13 16 -39 19 -39
5z"/>
<path d="M3658 2553 c-11 -3 -18 -14 -18 -28 0 -27 -24 -50 -44 -42 -10 4 -16
-2 -18 -16 -4 -28 -45 -35 -62 -11 -12 15 -13 15 -19 0 -9 -22 -50 -20 -72 4
-10 11 -26 20 -36 20 -10 0 -26 11 -35 25 -9 14 -25 25 -35 25 -17 0 -17 -1 1
-42 10 -24 21 -83 25 -132 4 -49 12 -101 18 -114 9 -20 8 -26 -6 -37 -20 -14
-37 -115 -20 -115 6 0 23 16 37 35 31 41 48 44 69 13 11 -16 16 -19 17 -8 0 8
8 25 18 38 l18 23 57 -61 c32 -33 64 -60 72 -60 27 0 45 42 45 107 0 59 -1 63
-23 63 -37 0 -40 11 -10 42 23 24 28 41 34 104 6 59 13 83 34 110 40 52 21 75
-47 57z"/>
<path d="M2720 2505 c-6 -16 -8 -40 -5 -53 l6 -25 25 23 c29 28 29 28 4 60
l-19 25 -11 -30z"/>
<path d="M4071 2519 c-44 -17 -50 -27 -40 -61 5 -18 6 -34 3 -37 -2 -3 -7 5
-11 17 -3 13 -11 21 -17 19 -19 -6 -76 -124 -79 -164 -2 -33 1 -38 21 -41 12
-2 22 -8 22 -13 0 -12 -7 -11 -31 2 -18 9 -20 8 -17 -12 2 -15 12 -26 28 -30
24 -7 24 -7 3 -8 -19 -1 -23 -6 -22 -33 2 -56 13 -82 39 -88 l25 -6 -23 -13
-23 -12 31 -39 c28 -36 33 -38 62 -29 38 10 48 5 19 -11 -26 -13 -27 -30 -3
-30 20 0 42 18 42 35 0 7 -11 17 -24 24 -18 10 -28 10 -46 1 -12 -6 -24 -9
-27 -6 -3 3 6 10 21 16 36 13 24 31 -17 24 -30 -4 -30 -4 -9 7 22 12 30 29 13
29 -5 0 -12 18 -16 40 -6 35 -10 40 -33 41 -26 0 -26 1 -4 9 18 8 22 17 22 57
0 26 7 79 15 117 10 46 11 74 5 87 -16 28 -12 36 6 11 14 -20 17 -21 36 -8 20
14 24 13 55 -14 23 -21 44 -30 68 -30 43 0 47 9 18 37 -22 22 -23 22 -33 3
-12 -23 -40 -27 -40 -6 0 7 7 19 16 26 13 12 12 16 -13 36 -21 17 -25 25 -17
34 9 9 17 9 34 0 22 -12 50 0 50 21 0 12 -79 10 -109 -2z m-77 -134 c3 -8 1
-15 -3 -15 -5 0 -11 7 -15 15 -3 8 -1 15 3 15 5 0 11 -7 15 -15z m-14 -36 c0
-6 -4 -7 -10 -4 -5 3 -10 11 -10 16 0 6 5 7 10 4 6 -3 10 -11 10 -16z m-12
-29 c7 -11 8 -20 2 -20 -5 0 -14 9 -20 20 -6 11 -7 20 -3 20 5 0 14 -9 21 -20z
m-13 -30 c3 -5 1 -10 -4 -10 -6 0 -11 5 -11 10 0 6 2 10 4 10 3 0 8 -4 11 -10z
m22 -186 c-3 -3 -12 -4 -19 -1 -8 3 -5 6 6 6 11 1 17 -2 13 -5z"/>
<path d="M2859 2504 c-7 -9 -21 -19 -30 -23 -14 -5 -14 -9 4 -36 10 -16 17
-22 13 -12 -7 22 21 23 52 1 21 -15 25 -15 43 2 19 17 26 44 11 44 -4 0 -13
-9 -20 -20 -11 -18 -14 -19 -27 -6 -9 9 -12 22 -8 33 6 16 8 15 14 -7 5 -22 7
-23 14 -7 14 33 -42 59 -66 31z"/>
<path d="M3773 2498 c-6 -13 -14 -32 -18 -43 -5 -16 -8 -17 -15 -5 -8 12 -10
11 -10 -5 0 -11 -5 -27 -11 -35 -8 -11 -9 -6 -5 20 5 29 4 32 -5 16 -7 -11 -9
-39 -5 -72 6 -50 4 -54 -26 -83 l-33 -31 28 0 c43 0 67 32 67 90 0 40 3 50 16
50 14 0 15 -7 10 -40 -4 -24 -2 -40 4 -40 16 0 34 44 31 81 -1 22 4 41 14 49
15 13 15 13 31 -39 6 -20 21 -2 26 29 4 32 37 40 45 11 3 -12 8 -21 12 -21 12
0 31 23 31 37 0 19 -79 17 -102 -4 -11 -9 -18 -11 -18 -5 0 7 -10 12 -22 12
-17 0 -19 3 -10 12 8 8 9 15 1 25 -16 18 -24 16 -36 -9z m20 -25 c-3 -21 -10
-42 -16 -48 -9 -10 -1 60 9 77 10 16 13 7 7 -29z"/>
<path d="M3083 2503 c-7 -3 -14 -14 -14 -26 -1 -17 -2 -18 -6 -4 -5 18 -23 24
-23 7 0 -6 7 -27 17 -48 l16 -37 6 30 c9 44 25 32 31 -22 3 -34 9 -48 20 -48
8 0 16 9 18 20 2 15 1 17 -6 6 -7 -10 -11 3 -13 43 -3 47 -2 54 9 39 6 -9 12
-27 12 -40 0 -14 6 -23 16 -23 12 0 14 -8 9 -44 -7 -47 10 -100 25 -76 9 15
30 5 30 -15 0 -7 7 -16 16 -19 31 -12 37 -6 16 17 -12 13 -20 34 -20 52 1 17
-4 40 -11 52 -6 12 -11 34 -10 50 0 25 1 26 9 8 10 -24 13 -1 3 33 -4 18 -8
20 -14 10 -7 -10 -9 -9 -9 3 0 24 -55 45 -75 29 -10 -8 -19 -9 -27 -3 -7 6
-19 8 -25 6z m114 -45 c-3 -8 -6 -5 -6 6 -1 11 2 17 5 13 3 -3 4 -12 1 -19z"/>
<path d="M4200 2475 c-15 -18 -5 -45 18 -53 14 -4 16 36 3 56 -6 10 -11 10
-21 -3z"/>
<path d="M2953 2430 c-23 -18 -31 -40 -15 -40 13 0 44 38 41 49 -2 5 -14 1
-26 -9z"/>
<path d="M2767 2426 c-15 -12 -15 -15 -2 -26 8 -7 22 -10 30 -6 13 4 14 10 5
26 -13 23 -10 23 -33 6z"/>
<path d="M2965 2394 c-20 -16 -25 -24 -14 -24 21 0 53 24 48 38 -2 6 -17 0
-34 -14z"/>
<path d="M2825 2364 c-18 -85 -25 -100 -71 -134 -58 -43 -73 -65 -57 -81 22
-22 85 11 111 59 13 23 19 42 13 42 -6 0 -11 4 -11 10 0 5 7 7 15 4 17 -7 21
11 5 21 -16 10 -12 28 5 21 19 -7 21 30 3 37 -10 4 -10 7 -1 14 7 5 9 14 3 23
-6 10 -10 7 -15 -16z m-30 -154 c-3 -5 -11 -10 -16 -10 -6 0 -7 5 -4 10 3 6
11 10 16 10 6 0 7 -4 4 -10z m-35 -31 c0 -5 -7 -9 -15 -9 -15 0 -20 12 -9 23
8 8 24 -1 24 -14z m-40 -11 c0 -16 -3 -19 -11 -11 -6 6 -8 16 -5 22 11 17 16
13 16 -11z"/>
<path d="M2972 2366 c-22 -11 -23 -33 -5 -98 5 -22 49 -24 57 -3 4 12 0 14
-22 9 -26 -5 -26 -5 -8 10 11 9 23 16 28 16 4 0 8 5 8 10 0 7 -6 7 -19 0 -33
-17 -48 -11 -18 8 36 22 34 35 -5 28 -26 -5 -28 -4 -12 3 22 10 42 32 27 30
-4 -1 -18 -6 -31 -13z"/>
<path d="M4087 2343 c-4 -3 -7 -13 -7 -22 1 -13 3 -13 11 2 11 19 8 33 -4 20z"/>
<path d="M4120 2321 c0 -72 58 -144 147 -182 54 -23 53 -23 53 -3 0 8 -4 13
-9 10 -5 -3 -11 3 -14 15 -4 16 -10 19 -33 13 -23 -6 -26 -4 -21 10 5 12 -3
22 -26 36 -17 11 -33 15 -35 10 -6 -17 -23 -11 -21 8 3 32 -1 42 -15 42 -10 0
-14 10 -14 30 1 17 -2 33 -5 37 -4 3 -7 -8 -7 -26z m95 -111 c3 -5 -1 -10 -10
-10 -9 0 -13 5 -10 10 3 6 8 10 10 10 2 0 7 -4 10 -10z"/>
<path d="M2866 2325 c4 -8 8 -15 10 -15 2 0 4 7 4 15 0 8 -4 15 -10 15 -5 0
-7 -7 -4 -15z"/>
<path d="M2905 2321 c-3 -5 -1 -12 5 -16 12 -7 30 2 30 16 0 12 -27 12 -35 0z"/>
<path d="M3099 2320 c-2 -35 3 -106 10 -117 4 -9 15 -7 39 8 33 22 43 49 17
49 -8 0 -15 7 -15 15 0 8 -5 14 -12 13 -6 -2 -17 8 -25 22 -8 15 -13 19 -14
10z"/>
<path d="M3823 2311 c-3 -12 -10 -21 -15 -21 -7 0 -8 -25 -4 -67 4 -45 3 -61
-3 -48 -5 11 -10 32 -10 47 -1 44 -18 41 -24 -4 -5 -39 14 -87 35 -88 5 0 18
21 30 46 18 39 19 50 9 66 -9 15 -10 23 -2 31 14 14 14 44 0 52 -6 4 -13 -2
-16 -14z"/>
<path d="M4015 2310 c-8 -13 6 -40 21 -40 19 0 18 36 -1 43 -8 4 -17 2 -20 -3z"/>
<path d="M4088 2294 c-5 -4 -8 -21 -7 -38 0 -30 0 -30 10 -7 11 27 8 57 -3 45z"/>
<path d="M2860 2281 c0 -6 5 -13 10 -16 6 -3 10 1 10 9 0 9 -4 16 -10 16 -5 0
-10 -4 -10 -9z"/>
<path d="M4232 2250 c0 -14 2 -19 5 -12 2 6 2 18 0 25 -3 6 -5 1 -5 -13z"/>
<path d="M2905 2250 c-3 -5 3 -10 14 -10 12 0 21 5 21 10 0 6 -6 10 -14 10 -8
0 -18 -4 -21 -10z"/>
<path d="M2850 2236 c0 -8 5 -18 10 -21 6 -3 10 1 10 9 0 8 -4 18 -10 21 -5 3
-10 -1 -10 -9z"/>
<path d="M4100 2215 c-7 -18 -7 -33 1 -46 14 -27 29 -14 29 26 0 43 -17 54
-30 20z"/>
<path d="M2964 2204 c-4 -17 -2 -29 7 -35 23 -15 34 -10 13 6 -18 14 -17 14
13 15 17 0 35 4 38 10 4 6 -6 7 -25 4 -35 -8 -40 3 -7 16 21 8 21 9 -5 9 -22
1 -29 -5 -34 -25z"/>
<path d="M3185 2208 c-11 -6 -23 -16 -27 -22 -11 -16 -9 -96 2 -96 6 0 10 5
10 10 0 20 21 9 30 -15 13 -35 30 -31 30 8 0 17 3 41 6 53 3 12 -1 27 -9 35
-7 8 -16 20 -18 26 -3 9 -9 9 -24 1z"/>
<path d="M3723 2179 c-1 -21 -6 -44 -12 -51 -6 -7 -25 -31 -43 -52 l-33 -39
28 7 c17 4 34 2 42 -4 11 -9 17 -4 29 25 11 26 20 35 31 31 19 -7 19 14 0 40
-8 10 -15 33 -15 50 0 45 -25 39 -27 -7z"/>
<path d="M4010 2205 c0 -8 7 -15 15 -15 8 0 15 7 15 15 0 8 -7 15 -15 15 -8 0
-15 -7 -15 -15z"/>
<path d="M2830 2203 c0 -5 4 -14 9 -21 7 -11 9 -11 14 1 3 8 3 18 0 21 -9 8
-23 7 -23 -1z"/>
<path d="M3855 2180 c-3 -5 7 -27 22 -47 l28 -37 3 33 c2 18 1 39 -2 47 -6 16
-42 19 -51 4z m42 -16 c-3 -3 -12 -4 -19 -1 -8 3 -5 6 6 6 11 1 17 -2 13 -5z"/>
<path d="M4147 2184 c-14 -14 -6 -61 13 -79 19 -17 19 -16 13 21 -7 46 -16 67
-26 58z"/>
<path d="M2810 2156 c0 -14 5 -26 10 -26 6 0 10 9 10 19 0 11 -4 23 -10 26 -6
4 -10 -5 -10 -19z"/>
<path d="M2890 2155 c0 -28 24 -34 34 -9 8 20 -1 34 -20 34 -8 0 -14 -10 -14
-25z"/>
<path d="M3068 2169 c-10 -5 -18 -16 -18 -24 0 -8 -9 -23 -21 -34 -11 -10 -22
-32 -23 -48 -1 -15 -6 -39 -11 -53 -7 -24 -6 -23 33 10 22 19 41 40 41 47 1 7
10 17 20 23 21 11 22 37 2 50 -9 5 -10 10 -2 14 12 8 15 26 4 26 -5 0 -16 -5
-25 -11z m22 -63 c0 -2 -7 -6 -15 -10 -8 -3 -15 -1 -15 4 0 6 7 10 15 10 8 0
15 -2 15 -4z"/>
<path d="M2950 2150 c0 -14 38 -32 45 -21 3 6 -3 15 -14 20 -24 14 -31 14 -31
1z"/>
<path d="M3487 2150 c-11 -29 -14 -147 -5 -164 5 -9 16 -16 24 -16 11 0 13 -9
8 -42 -6 -35 -5 -40 9 -35 8 3 23 -3 33 -14 19 -21 78 -26 104 -9 11 7 5 10
-23 10 -45 0 -72 13 -88 41 -11 21 -10 21 18 -1 32 -23 77 -28 133 -15 33 8
34 7 20 -10 -8 -10 -28 -26 -45 -37 -27 -16 -28 -18 -8 -18 37 0 53 11 85 57
28 42 30 48 19 83 -15 52 -37 58 -61 18 -17 -28 -17 -34 -5 -41 8 -4 15 -12
15 -16 0 -11 -81 -42 -91 -35 -5 3 -9 23 -9 45 0 21 -4 39 -9 39 -6 0 -11 17
-13 37 -3 33 -7 38 -38 46 -19 5 -29 12 -22 14 17 6 15 28 -3 43 -13 11 -15 8
-14 -21 1 -19 4 -47 8 -64 7 -30 7 -30 13 -5 4 13 10 22 13 19 3 -3 -1 -23 -8
-44 l-14 -39 -11 34 c-7 18 -12 49 -13 69 -1 49 -14 91 -22 71z m23 -131 c0
-6 -4 -7 -10 -4 -5 3 -10 11 -10 16 0 6 5 7 10 4 6 -3 10 -11 10 -16z m63 -37
c-3 -12 -9 -22 -14 -22 -5 0 -3 11 3 25 13 30 20 28 11 -3z"/>
<path d="M2776 2142 c-10 -17 4 -56 15 -45 6 6 6 19 1 33 -6 15 -11 19 -16 12z"/>
<path d="M4190 2121 c0 -34 15 -49 24 -25 5 14 -9 54 -19 54 -3 0 -5 -13 -5
-29z"/>
<path d="M3828 2110 c-16 -28 -16 -29 3 -35 10 -4 19 -11 19 -17 0 -6 -6 -6
-15 2 -9 7 -19 9 -23 5 -4 -4 -2 -10 4 -12 6 -2 20 -11 30 -19 18 -15 18 -15
-2 -11 -20 4 -19 1 10 -37 29 -39 31 -40 34 -18 2 13 -4 44 -12 69 -9 26 -16
59 -16 75 0 36 -11 36 -32 -2z"/>
<path d="M2740 2097 c0 -23 4 -36 10 -32 13 8 13 35 0 55 -7 11 -10 5 -10 -23z"/>
<path d="M2940 2121 c0 -9 30 -24 36 -18 2 1 -6 8 -16 15 -11 7 -20 8 -20 3z"/>
<path d="M4065 2120 c3 -5 -2 -10 -11 -10 -13 0 -15 -3 -7 -11 6 -6 16 -8 22
-5 14 9 14 36 0 36 -5 0 -7 -4 -4 -10z"/>
<path d="M2712 2090 c0 -19 2 -27 5 -17 2 9 2 25 0 35 -3 9 -5 1 -5 -18z"/>
<path d="M3370 2084 c-9 -26 -15 -33 -23 -25 -16 16 -27 13 -27 -8 0 -33 -11
-51 -31 -51 -22 0 -22 -1 -7 -51 13 -46 28 -51 28 -10 0 17 5 33 10 36 6 4 10
-7 10 -26 0 -26 2 -30 15 -19 10 8 13 25 10 58 -3 34 -2 40 4 22 10 -31 17
-16 26 58 7 61 1 67 -15 16z"/>
<path d="M3407 2090 c-3 -19 -9 -55 -12 -80 l-6 -45 22 22 c20 19 21 26 12 80
-9 56 -10 57 -16 23z"/>
<path d="M4232 2094 c2 -17 10 -30 20 -32 14 -3 15 2 9 24 -10 39 -34 45 -29
8z"/>
<path d="M2667 2086 c-3 -8 1 -20 9 -26 12 -10 14 -8 14 14 0 28 -14 35 -23
12z"/>
<path d="M2837 2093 c-13 -13 -7 -31 13 -36 21 -5 45 16 35 33 -7 11 -38 14
-48 3z"/>
<path d="M4290 2080 c0 -11 3 -20 8 -20 4 0 7 -25 6 -56 0 -46 4 -61 23 -80
26 -26 30 -44 9 -44 -8 0 -16 -6 -19 -12 -2 -7 -11 4 -20 25 -9 20 -19 37 -22
37 -3 0 -3 -17 1 -37 4 -26 3 -35 -4 -28 -6 6 -12 21 -14 34 -5 37 -28 39 -28
2 0 -17 -5 -31 -10 -31 -6 0 -9 12 -8 27 4 41 -27 44 -35 3 -4 -16 -12 -30
-18 -30 -7 0 -8 7 -4 18 17 40 16 48 -7 59 -20 9 -28 7 -51 -13 l-28 -24 29 0
c19 0 32 6 36 16 4 9 10 14 14 10 4 -4 -6 -18 -22 -31 l-29 -23 57 -17 c68
-20 185 -17 230 5 28 15 74 66 65 74 -2 2 -14 7 -27 10 -19 6 -23 3 -28 -24
-9 -41 -30 -32 -27 13 2 27 -2 36 -17 40 -12 3 -20 14 -20 26 0 25 13 27 33 6
13 -12 15 -10 21 17 8 38 4 42 -39 42 -22 0 -35 5 -35 13 0 7 -4 13 -10 13 -5
0 -10 -9 -10 -20z"/>
<path d="M2865 2015 c-60 -64 -76 -75 -113 -81 -23 -4 -45 -11 -49 -17 -3 -6
-1 -7 5 -3 7 4 12 1 12 -8 0 -9 5 -16 10 -16 6 0 10 -9 10 -20 0 -27 10 -25
78 10 72 37 114 69 91 70 -9 0 -22 7 -29 15 -10 12 -9 15 5 15 11 0 15 5 11
16 -9 23 17 46 34 31 10 -10 12 -8 7 6 -4 11 -1 17 10 17 13 0 13 2 2 16 -12
15 -11 16 11 10 19 -6 21 -5 10 3 -25 18 -32 13 -105 -64z m19 -87 c-3 -5 -12
-1 -20 9 -20 27 -17 39 6 18 11 -10 17 -22 14 -27z m-24 -10 c0 -5 -7 -8 -15
-8 -8 0 -15 -4 -15 -9 0 -5 -9 -13 -20 -16 -21 -7 -50 9 -50 28 0 5 8 3 18 -6
25 -23 31 -21 26 6 -2 12 -2 16 2 10 10 -21 26 -14 19 8 -6 18 -5 19 14 7 12
-7 21 -16 21 -20z m-93 -44 c-4 -4 -14 1 -22 12 -22 29 -18 41 7 17 12 -13 19
-26 15 -29z"/>
<path d="M3766 2057 c-7 -27 -6 -33 4 -30 5 1 11 -11 15 -27 4 -20 13 -30 25
-30 9 0 28 -16 41 -35 13 -19 27 -35 32 -35 10 0 9 9 -3 23 -48 57 -99 131
-95 138 3 4 1 10 -4 13 -5 3 -11 -4 -15 -17z"/>
<path d="M3107 2052 c-20 -22 -42 -81 -33 -89 12 -12 44 29 51 64 8 43 3 49
-18 25z"/>
<path d="M3921 2054 c0 -11 3 -14 6 -6 3 7 2 16 -1 19 -3 4 -6 -2 -5 -13z"/>
<path d="M4127 2054 c-14 -15 -6 -34 14 -34 14 0 19 5 17 17 -3 18 -20 27 -31
17z"/>
<path d="M2777 2043 c-12 -12 -7 -31 10 -37 21 -8 35 6 27 27 -6 17 -25 22
-37 10z"/>
<path d="M3190 2028 c1 -13 7 -41 15 -63 8 -21 12 -41 10 -43 -6 -6 -35 55
-35 74 0 13 -5 11 -20 -9 -24 -30 -25 -56 -5 -83 13 -16 16 -17 25 -4 8 13 12
11 26 -9 26 -37 78 -54 121 -40 l36 12 -49 16 c-41 13 -49 20 -49 41 0 15 -9
30 -22 38 -26 14 -32 45 -8 36 22 -9 18 10 -8 34 -29 28 -37 28 -37 0z m74
-143 c16 -12 17 -15 4 -15 -8 0 -21 7 -28 15 -16 19 -1 19 24 0z"/>
<path d="M4417 2023 c-3 -15 -5 -29 -4 -29 1 -1 13 -5 25 -9 22 -6 23 -5 17
17 -4 12 -13 29 -20 36 -10 11 -13 9 -18 -15z"/>
<path d="M2560 2034 c0 -3 7 -12 16 -21 17 -17 42 -4 30 16 -7 11 -46 16 -46
5z"/>
<path d="M3035 2007 c-27 -27 -35 -43 -34 -68 l1 -34 15 38 c9 20 22 37 30 37
14 0 38 48 29 58 -3 2 -21 -11 -41 -31z"/>
<path d="M3636 2022 c-2 -4 -1 -14 4 -22 7 -11 12 -12 21 -3 6 6 8 16 5 22 -8
13 -23 14 -30 3z"/>
<path d="M4222 2017 c-14 -17 2 -42 22 -34 20 8 20 21 2 36 -10 8 -16 8 -24
-2z"/>
<path d="M2910 2009 c0 -12 25 -22 41 -17 6 2 0 9 -15 16 -16 7 -26 8 -26 1z"/>
<path d="M3920 2010 c0 -5 5 -10 11 -10 5 0 7 5 4 10 -3 6 -8 10 -11 10 -2 0
-4 -4 -4 -10z"/>
<path d="M2514 1986 c-6 -27 6 -45 29 -46 19 0 18 33 -1 52 l-21 21 -7 -27z
m21 -16 c3 -5 1 -10 -4 -10 -6 0 -11 5 -11 10 0 6 2 10 4 10 3 0 8 -4 11 -10z"/>
<path d="M2710 1989 c0 -24 23 -21 28 4 2 10 -3 17 -12 17 -10 0 -16 -9 -16
-21z"/>
<path d="M2631 1976 c-9 -11 -9 -20 -2 -35 15 -27 14 -41 -4 -41 -22 0 -18
-17 5 -23 13 -3 20 0 20 8 0 8 7 18 17 23 14 9 14 11 -5 21 -17 9 -21 18 -16
36 7 28 2 32 -15 11z"/>
<path d="M2910 1970 c0 -6 7 -10 15 -10 8 0 15 2 15 4 0 2 -7 6 -15 10 -8 3
-15 1 -15 -4z"/>
<path d="M3380 1945 c-9 -10 -9 -15 -1 -15 19 0 12 -17 -10 -23 -12 -3 -18
-10 -15 -16 14 -23 65 17 66 52 0 21 -23 22 -40 2z"/>
<path d="M2581 1926 c-8 -10 -9 -16 -1 -21 5 -3 13 1 16 10 9 22 -1 29 -15 11z"/>
<path d="M3795 1918 c-15 -22 -14 -23 5 -26 30 -5 54 17 39 34 -16 19 -25 17
-44 -8z"/>
<path d="M3930 1926 c-20 -25 -8 -61 21 -64 36 -4 55 21 41 53 -13 28 -43 33
-62 11z"/>
<path d="M2924 1915 c-4 -9 0 -23 9 -32 21 -21 49 -9 45 19 -4 28 -45 38 -54
13z"/>
<path d="M4306 1915 c4 -8 11 -15 16 -15 6 0 5 6 -2 15 -7 8 -14 15 -16 15 -2
0 -1 -7 2 -15z"/>
<path d="M1057 2674 c-10 -11 11 -41 33 -47 14 -4 20 0 20 12 0 29 -35 52 -53
35z"/>
<path d="M1135 2670 c-7 -12 12 -33 38 -43 20 -7 20 -7 7 27 -10 26 -34 34
-45 16z"/>
<path d="M1216 2661 c-4 -5 0 -12 6 -14 8 -3 5 -6 -6 -6 -14 -1 -17 -6 -12
-27 4 -14 2 -32 -4 -40 -15 -17 -4 -34 21 -34 23 0 25 16 2 24 -11 5 -13 10
-6 17 7 7 21 5 44 -6 28 -13 40 -14 64 -5 l30 12 -24 19 c-19 16 -26 17 -32 7
-7 -10 -9 -10 -9 0 0 6 -5 12 -11 12 -5 0 -7 -6 -3 -12 6 -10 4 -10 -7 0 -16
14 -33 16 -24 2 4 -6 -1 -7 -11 -3 -14 5 -12 8 10 20 33 17 34 43 2 43 -14 0
-27 -4 -30 -9z"/>
<path d="M995 2616 c-18 -13 -18 -14 3 -25 26 -14 43 -14 79 0 l28 11 -25 13
c-32 18 -61 19 -85 1z"/>
<path d="M1116 2611 c-4 -5 -2 -12 3 -16 16 -9 72 -2 68 10 -5 13 -63 19 -71
6z"/>
<path d="M1094 2571 c4 -5 -3 -7 -14 -4 -15 4 -20 0 -20 -16 0 -23 11 -26 41
-11 23 13 25 40 3 40 -8 0 -13 -4 -10 -9z"/>
<path d="M1140 2545 c0 -24 24 -44 37 -31 9 8 -14 56 -27 56 -5 0 -10 -11 -10
-25z"/>
<path d="M1230 2516 c7 -7 14 -6 21 1 9 9 7 12 -9 10 -14 -1 -18 -5 -12 -11z"/>
</g>
</svg>
